<svg width="30" height="25" viewBox="0 0 30 25" fill="none" xmlns="http://www.w3.org/2000/svg">
<path d="M4.24613 15.6555L2.09836 15.2472C1.46888 16.3418 0.871513 17.5715 0.871513 18.9881C0.871513 20.3777 1.44469 21.5924 2.09836 22.7291L9.3643 21.3475V24.0721L11.8953 22.9813L14.4262 24.0721V21.349L21.6355 22.7298C22.2601 21.6437 22.8628 20.4108 22.8628 18.9881C22.8628 18.7429 22.8417 18.4988 22.8064 18.2609H29.6682V0.808594H4.24613V15.6555ZM3.06108 21.0567C2.84161 20.5565 2.55882 19.7618 2.55882 18.9881C2.55882 18.2143 2.84167 17.4195 3.06108 16.9195L9.3643 18.118V19.8582L3.06108 21.0567ZM12.7389 21.7189L11.8953 21.3553L11.0516 21.7189V18.2609H12.7389V21.7189ZM20.6736 21.0558L14.4262 19.8591V18.117L20.6736 16.9204C20.893 17.4207 21.1755 18.2149 21.1755 18.9881C21.1755 19.7614 20.8929 20.5557 20.6736 21.0558V21.0558ZM27.9809 2.26296V16.8066H22.4158C22.1392 16.0773 21.9163 15.733 21.6355 15.2464L13.49 16.8066H10.3L5.93344 15.9763V2.26296H27.9809Z" fill="black"/>
<path d="M11.0516 3.71729H22.8628V5.17165H11.0516V3.71729Z" fill="black"/>
<path d="M7.62075 9.53479H26.2936V10.9892H7.62075V9.53479Z" fill="black"/>
<path d="M11.0516 12.4435H22.8628V13.8978H11.0516V12.4435Z" fill="black"/>
<path d="M12.7389 6.62598H14.4262V8.08034H12.7389V6.62598Z" fill="black"/>
<path d="M16.1135 6.62598H17.8008V8.08034H16.1135V6.62598Z" fill="black"/>
<path d="M19.4882 6.62598H21.1755V8.08034H19.4882V6.62598Z" fill="black"/>
</svg>
