<svg width="30" height="25" viewBox="0 0 30 25" fill="none" xmlns="http://www.w3.org/2000/svg">
<g clip-path="url(#clip0_11_59)">
<path d="M26.2909 3.79114H13.3324V4.61851H26.2909V3.79114Z" fill="black"/>
<path d="M21.4915 5.44592H13.3324V6.27329H21.4915V5.44592Z" fill="black"/>
<path d="M21.4915 7.10071H13.3324V7.92808H21.4915V7.10071Z" fill="black"/>
<path d="M26.2909 2.13647H17.1719V2.96385H26.2909V2.13647Z" fill="black"/>
<path d="M16.212 2.13647H15.2521V2.96385H16.212V2.13647Z" fill="black"/>
<path d="M15.2521 16.6154H14.2922V17.4427H15.2521V16.6154Z" fill="black"/>
<path d="M8.39227 2.84264L7.71363 2.25769L6.75374 3.08506C6.56638 3.2466 6.56638 3.50847 6.75374 3.67001L7.71363 4.49738L8.39227 3.91243L7.7717 3.37754L8.39227 2.84264Z" fill="black"/>
<path d="M12.2319 3.08506L11.272 2.25769L10.5933 2.84264L11.2139 3.37754L10.5933 3.91243L11.272 4.49738L12.2319 3.67001C12.4192 3.50847 12.4192 3.2466 12.2319 3.08506Z" fill="black"/>
<path d="M9.51773 2.00512L8.55695 4.48718L9.46704 4.74891L10.4278 2.26685L9.51773 2.00512Z" fill="black"/>
<path d="M25.331 12.8922V9.58274H24.3711V12.8922H23.4112V8.75537H22.4514V12.8922H21.4915V10.8238H20.5316V12.8922H19.5717V10.4101H18.6118V12.8922H17.6519V11.2375H16.692V12.8922H15.7321V13.7196H26.2909V12.8922H25.331Z" fill="black"/>
<path d="M25.811 0.0679932H3.73349C2.14373 0.0693376 0.855381 1.17982 0.853821 2.5501V10.6691V10.6728V15.3743V16.6154C0.855381 17.9857 2.14373 19.0962 3.73349 19.0975H9.67618L7.7564 22.407H5.17333C4.37812 22.407 3.73349 22.9626 3.73349 23.648C3.73349 24.3335 4.37812 24.8891 5.17333 24.8891H24.3712C25.1664 24.8891 25.811 24.3335 25.811 23.648C25.811 22.9626 25.1664 22.407 24.3712 22.407H21.7881L19.8683 19.0975H25.811C27.4007 19.0962 28.6891 17.9857 28.6907 16.6154V2.5501C28.6891 1.17982 27.4007 0.0693376 25.811 0.0679932ZM1.81371 5.88854L2.90463 7.00798C2.99582 7.10162 3.13044 7.15566 3.27227 7.15566H4.74138C4.8832 7.15566 5.01783 7.10162 5.10902 7.00798L6.20041 5.88854L7.27741 6.19012L7.39644 7.64753C7.40628 7.76942 7.47815 7.88132 7.59274 7.95325L8.78156 8.69788C8.89657 8.76945 9.04223 8.7938 9.17992 8.76448L10.8276 8.41161L11.4937 9.20133L10.5958 10.4424C10.5214 10.5464 10.5041 10.6735 10.5487 10.7895L11.0032 11.9937C11.047 12.1099 11.1479 12.2034 11.2792 12.2494L12.8525 12.7992V13.7755L11.2782 14.3252C11.1467 14.371 11.0455 14.4648 11.0023 14.5813L10.8583 14.9607H8.09332C9.16888 13.0196 8.21522 10.6946 5.96332 9.76751C4.64065 9.223 3.09367 9.2653 1.81371 9.88102V5.88854ZM1.81371 10.8652C3.3661 9.82129 5.60636 10.0598 6.81738 11.3979C7.75244 12.431 7.82461 13.8615 6.99712 14.9607H1.81371V10.8652ZM24.3712 23.2344C24.6362 23.2344 24.8511 23.4196 24.8511 23.648C24.8511 23.8765 24.6362 24.0617 24.3712 24.0617H5.17333C4.90828 24.0617 4.69338 23.8765 4.69338 23.648C4.69338 23.4196 4.90828 23.2344 5.17333 23.2344H24.3712ZM20.7149 22.407H8.82956L10.7493 19.0975H18.7951L20.7149 22.407ZM27.7308 16.6154C27.7308 17.5293 26.8712 18.2701 25.811 18.2701H3.73349C2.67323 18.2701 1.81371 17.5293 1.81371 16.6154V15.788H7.24765H7.25197H27.7308V16.6154ZM27.7308 14.9607H12.015L13.5129 14.4373C13.6938 14.3741 13.8122 14.2226 13.8123 14.0543V12.5199C13.8124 12.3514 13.694 12.1998 13.5129 12.1364L11.8446 11.5548L11.5288 10.7171L12.48 9.40156C12.5832 9.25863 12.5756 9.07609 12.4608 8.93989L11.4145 7.69883C11.2997 7.56247 11.1004 7.4998 10.9106 7.54039L9.16552 7.9127L8.34097 7.39643L8.21475 5.85338C8.20101 5.68517 8.07016 5.54094 7.88406 5.48892L6.19225 5.01484C6.0061 4.96375 5.8026 5.01417 5.67631 5.14267L4.52108 6.32788H3.49736L2.34165 5.14267C2.21531 5.01401 2.01151 4.96354 1.82523 5.01484L1.81371 5.01856V2.5501C1.81371 1.63622 2.67323 0.895364 3.73349 0.895364H25.811C26.8712 0.895364 27.7308 1.63622 27.7308 2.5501V14.9607Z" fill="black"/>
</g>
<defs>
<clipPath id="clip0_11_59">
<rect width="28.7967" height="24.8211" fill="white" transform="translate(0.37384 0.0679932)"/>
</clipPath>
</defs>
</svg>
