<svg width="30" height="26" viewBox="0 0 30 26" fill="none" xmlns="http://www.w3.org/2000/svg">
<path d="M24.1084 19.8245L23.3597 20.255L25.1226 22.5343H5.20647L7.30638 19.8195H18.7382V19.0438H7.06566C6.9916 19.0438 6.91868 19.0596 6.85338 19.0897C6.78808 19.1198 6.7324 19.1633 6.6913 19.2164L3.99161 22.7069C3.94245 22.7707 3.91616 22.8455 3.91602 22.9221V24.0856C3.91602 24.2913 4.01083 24.4886 4.17959 24.6341C4.34835 24.7796 4.57725 24.8613 4.81591 24.8613H25.5136C25.7522 24.8613 25.9811 24.7796 26.1499 24.6341C26.3187 24.4886 26.4135 24.2913 26.4135 24.0856V22.9221C26.4133 22.8455 26.387 22.7707 26.3379 22.7069L24.1084 19.8245ZM4.81591 24.0856V23.31H25.5136V24.0856H4.81591Z" fill="black"/>
<path d="M24.1637 1.59143H6.16576C5.80809 1.59235 5.46537 1.71523 5.21246 1.93323C4.95954 2.15122 4.81699 2.44663 4.81592 2.75492V12.8385C4.81699 13.1468 4.95954 13.4422 5.21246 13.6602C5.46537 13.8782 5.80809 14.0011 6.16576 14.002H12.465V15.5533H10.6653C10.5459 15.5533 10.4315 15.5942 10.3471 15.6669C10.2627 15.7396 10.2153 15.8383 10.2153 15.9411V17.4925C10.2153 17.5953 10.2627 17.694 10.3471 17.7667C10.4315 17.8394 10.5459 17.8803 10.6653 17.8803H19.6642C19.7836 17.8803 19.898 17.8394 19.9824 17.7667C20.0668 17.694 20.1142 17.5953 20.1142 17.4925V15.9411C20.1142 15.8383 20.0668 15.7396 19.9824 15.6669C19.898 15.5942 19.7836 15.5533 19.6642 15.5533H17.8644V14.002H24.1637C24.5214 14.0011 24.8641 13.8782 25.117 13.6602C25.3699 13.4422 25.5125 13.1468 25.5136 12.8385V2.75492C25.5125 2.44663 25.3699 2.15122 25.117 1.93323C24.8641 1.71523 24.5214 1.59235 24.1637 1.59143V1.59143ZM19.2143 16.329V17.1046H11.1152V16.329H19.2143ZM13.3649 15.5533V14.002H16.9645V15.5533H13.3649ZM24.6137 12.8385C24.6137 12.9414 24.5663 13.04 24.4819 13.1127C24.3975 13.1855 24.2831 13.2263 24.1637 13.2263H6.16576C6.04643 13.2263 5.93198 13.1855 5.8476 13.1127C5.76322 13.04 5.71582 12.9414 5.71582 12.8385V11.675H24.6137V12.8385ZM24.6137 10.8993H5.71582V2.75492C5.71582 2.65206 5.76322 2.55342 5.8476 2.48068C5.93198 2.40795 6.04643 2.36709 6.16576 2.36709H24.1637C24.2831 2.36709 24.3975 2.40795 24.4819 2.48068C24.5663 2.55342 24.6137 2.65206 24.6137 2.75492V10.8993Z" fill="black"/>
<path d="M21.914 12.0629H22.8139V12.8385H21.914V12.0629Z" fill="black"/>
<path d="M11.1152 10.1236H12.915C13.0343 10.1236 13.1487 10.0828 13.2331 10.01C13.3175 9.93731 13.3649 9.83867 13.3649 9.73581V9.34798H16.9645V9.73581C16.9645 9.83867 17.0119 9.93731 17.0963 10.01C17.1807 10.0828 17.2951 10.1236 17.4145 10.1236H19.2143C19.3336 10.1236 19.448 10.0828 19.5324 10.01C19.6168 9.93731 19.6642 9.83867 19.6642 9.73581V8.18449C19.6642 8.08163 19.6168 7.98298 19.5324 7.91025C19.448 7.83752 19.3336 7.79666 19.2143 7.79666H18.7643V5.46968H19.2143C19.3336 5.46968 19.448 5.42882 19.5324 5.35609C19.6168 5.28335 19.6642 5.18471 19.6642 5.08185V3.53053C19.6642 3.42767 19.6168 3.32903 19.5324 3.25629C19.448 3.18356 19.3336 3.1427 19.2143 3.1427H17.4145C17.2951 3.1427 17.1807 3.18356 17.0963 3.25629C17.0119 3.32903 16.9645 3.42767 16.9645 3.53053V3.91836H13.3649V3.53053C13.3649 3.42767 13.3175 3.32903 13.2331 3.25629C13.1487 3.18356 13.0343 3.1427 12.915 3.1427H11.1152C10.9958 3.1427 10.8814 3.18356 10.797 3.25629C10.7126 3.32903 10.6652 3.42767 10.6652 3.53053V5.08185C10.6652 5.18471 10.7126 5.28335 10.797 5.35609C10.8814 5.42882 10.9958 5.46968 11.1152 5.46968H11.5651V7.79666H11.1152C10.9958 7.79666 10.8814 7.83752 10.797 7.91025C10.7126 7.98298 10.6652 8.08163 10.6652 8.18449V9.73581C10.6652 9.83867 10.7126 9.93731 10.797 10.01C10.8814 10.0828 10.9958 10.1236 11.1152 10.1236ZM18.7643 9.34798H17.8644V8.57232H18.7643V9.34798ZM17.8644 3.91836H18.7643V4.69402H17.8644V3.91836ZM11.5651 3.91836H12.465V4.69402H11.5651V3.91836ZM12.465 5.46968H12.915C13.0343 5.46968 13.1487 5.42882 13.2331 5.35609C13.3175 5.28335 13.3649 5.18471 13.3649 5.08185V4.69402H16.9645V5.08185C16.9645 5.18471 17.0119 5.28335 17.0963 5.35609C17.1807 5.42882 17.2951 5.46968 17.4145 5.46968H17.8644V7.79666H17.4145C17.2951 7.79666 17.1807 7.83752 17.0963 7.91025C17.0119 7.98298 16.9645 8.08163 16.9645 8.18449V8.57232H13.3649V8.18449C13.3649 8.08163 13.3175 7.98298 13.2331 7.91025C13.1487 7.83752 13.0343 7.79666 12.915 7.79666H12.465V5.46968ZM11.5651 8.57232H12.465V9.34798H11.5651V8.57232Z" fill="black"/>
<path d="M11.1152 20.9829H17.4145V21.7586H11.1152V20.9829Z" fill="black"/>
<path d="M27.7048 15.1035L26.4315 14.0059C26.3896 13.9698 26.3397 13.9413 26.2849 13.9219C26.23 13.9026 26.1713 13.8929 26.112 13.8935C26.0534 13.893 25.9953 13.9027 25.9412 13.922C25.8871 13.9413 25.8381 13.9699 25.797 14.0059L19.7497 19.2184C19.7004 19.2607 19.6634 19.3126 19.6417 19.3696L19.3223 20.1918C19.2966 20.26 19.2931 20.3329 19.3121 20.4026C19.3311 20.4724 19.372 20.5363 19.4303 20.5874L18.7958 21.1381L19.4303 21.685L20.0692 21.1381C20.1105 21.1739 20.1595 21.2022 20.2136 21.2215C20.2677 21.2408 20.3256 21.2507 20.3842 21.2506C20.433 21.2501 20.4815 21.2436 20.5281 21.2312L21.482 20.9558C21.5482 20.9371 21.6083 20.9053 21.6575 20.8628L27.7048 15.6503C27.7886 15.5777 27.8357 15.4794 27.8357 15.3769C27.8357 15.2744 27.7886 15.1761 27.7048 15.1035V15.1035ZM21.0996 20.25L20.5101 20.4167L20.2627 20.2073L20.4606 19.6993L24.8387 15.9257L25.4776 16.4725L21.0996 20.25ZM26.112 15.9257L25.4776 15.3788L26.112 14.8281L26.7509 15.3788L26.112 15.9257Z" fill="black"/>
</svg>
