<svg width="53" height="65" viewBox="0 0 53 65" fill="none" xmlns="http://www.w3.org/2000/svg">
<path d="M26.5846 65L5.07782 59.7793L0.285049 12.7742H52.9487L48.1509 59.7722L26.5846 65Z" fill="#4353AD"/>
<path d="M44.0434 56.7794L48.143 16.6177H26.6168V61.0039L44.0434 56.7794Z" fill="#485FB5"/>
<path d="M26.6168 49.0235L26.5879 49.03L19.2455 47.2964L18.776 42.6987H12.1577L13.0813 51.7505L26.5865 55.0288L26.6168 55.0215V49.0235ZM10.0849 22.3827L10.6842 28.1476H26.6168V22.3827H10.0849ZM11.2723 34.051L11.8632 39.816H26.6168V34.051H11.2723Z" fill="#EDEDED"/>
<path d="M31.8435 6.38962e-05H39.8288V2.53905H35.1831V3.04709H39.8288V8.88672H31.8435V6.22052H36.4896V5.71288H31.8438V6.38962e-05H31.8435ZM22.2613 6.38962e-05H30.2464V2.53905H25.6007V3.04709H30.2464V8.88672H22.2616V6.22052H26.9074V5.71288H22.2612V6.38962e-05H22.2613ZM12.6792 6.38962e-05H20.6641V2.91988H16.0185V5.84009H20.6645V8.75991H12.6792V6.38962e-05Z" fill="#100F0D"/>
<path d="M41.9193 34.0512L43.1093 22.3829H26.5941V28.1477H35.8842L35.2844 34.0512H26.5941V39.8162H34.7127L33.9469 47.2932L26.5939 49.0284V55.0261L40.1097 51.7507L40.2087 50.7769L41.7584 35.5992L41.9193 34.0512Z" fill="white"/>
</svg>
