<svg width="53" height="65" viewBox="0 0 53 65" fill="none" xmlns="http://www.w3.org/2000/svg">
<path d="M5.05887 59.7793L0.289719 12.774H52.6953L47.9209 59.7719L26.4603 65L5.05887 59.7793Z" fill="#E53D20"/>
<path d="M26.4925 61.0039L43.8337 56.7793L47.9136 16.6174H26.4925V61.0039Z" fill="#F15123"/>
<path d="M26.4925 34.0511H17.8111L17.2115 28.1476H26.4925V22.3825H26.4698H10.0415L10.1986 23.9292L11.8111 39.8159H26.4925V34.0511Z" fill="#EDEDED"/>
<path d="M26.4925 49.0232L26.4637 49.03L19.1572 47.2962L18.6899 42.6984H15.1396H12.1041L13.0233 51.7503L26.4623 55.0286L26.4925 55.0212V49.0232Z" fill="#EDEDED"/>
<path d="M5.16547 4.1008e-05H8.49956V2.89456H11.5493V4.1008e-05H14.8836V8.76538H11.5495V5.83029H8.49971V8.76538H5.16571V4.1008e-05H5.16547Z" fill="#100F0D"/>
<path d="M19.2679 2.90678H16.3328V4.1008e-05H25.5386V2.90678H22.6021V8.76538H19.2681V2.90678H19.2679Z" fill="#100F0D"/>
<path d="M26.9996 4.1008e-05H30.4761L32.6146 3.0799L34.751 4.1008e-05H38.2288V8.76538H34.9085V4.42079L32.6146 7.53739H32.5574L30.262 4.42079V8.76538H26.9996V4.1008e-05Z" fill="#100F0D"/>
<path d="M39.8881 4.1008e-05H43.2232V5.8681H47.9117V8.76538H39.8881V4.1008e-05Z" fill="#100F0D"/>
<path d="M26.4698 34.0511V39.8159H34.5484L33.7869 47.2927L26.4698 49.0282V55.0259L39.9194 51.7504L40.018 50.7765L41.5598 35.5991L41.7198 34.0511H39.9519H26.4698Z" fill="white"/>
<path d="M26.4698 22.3827V28.1477H42.2957H42.3168L42.4484 26.8518L42.7473 23.9293L42.9042 22.3827H26.4698Z" fill="white"/>
</svg>
