<svg width="185" height="37" viewBox="0 0 185 37" fill="none" xmlns="http://www.w3.org/2000/svg">
<path fill-rule="evenodd" clip-rule="evenodd" d="M177.011 2.70654L184.757 2.74372C184.757 2.74372 170.356 19.7888 169.18 21.178C168.798 21.6279 168.218 22.113 167.924 22.7144C167.18 24.2262 166.416 27.5424 166.416 27.5424L159.329 27.5731C159.329 27.5731 160.432 24.1166 160.386 22.2754C160.346 20.6668 159.406 19.0605 158.879 17.4473C158.346 15.8146 157.622 12.6192 157.622 12.6192H164.909L165.914 16.1306L177.011 2.70654Z" fill="#1A1918"/>
<path fill-rule="evenodd" clip-rule="evenodd" d="M162.344 6.30113C163.773 7.05397 164.65 11.206 164.65 11.206C164.65 11.206 157.17 11.3024 153.1 11.3024H149.583L145.311 27.5423H138.779C138.779 27.5423 142.844 9.89368 143.804 6.69397C144.115 5.65827 145.935 5.8358 149.007 5.8358H153.914C157.083 5.8358 160.786 5.48261 162.344 6.30113Z" fill="#1A1918"/>
<path fill-rule="evenodd" clip-rule="evenodd" d="M131.933 14.2105C131.933 14.2105 132.136 13.168 131.242 11.961C130.478 10.9318 129.772 10.6926 127.762 10.6378C122.087 10.482 122.197 14.1557 122.197 14.1557L131.933 14.2105ZM138.088 10.0036C138.92 12.624 137.335 18.7818 137.335 18.7818C137.335 18.7818 129.056 18.661 124.521 18.7818C123.111 18.8193 121.423 18.6479 121.004 19.2208C120.413 20.0238 121.219 21.2596 121.903 21.7817C122.689 22.383 124.222 22.4512 124.772 22.5125C128.453 22.9208 136.156 22.6178 136.156 22.6178L134.822 27.7793C134.822 27.7793 123.936 28.2558 118.491 27.1209C117.416 26.8972 116.408 26.4452 115.727 25.8042C115.541 25.6289 115.38 25.3897 115.204 25.1834C115.064 25.0186 114.655 24.4767 114.471 24.0485C113.227 21.154 114.617 15.6084 115.978 12.637C116.137 12.2925 116.335 11.856 116.544 11.4848C116.805 11.022 117.026 10.4996 117.235 10.223C117.375 10.0321 117.549 9.90914 117.695 9.72914C117.863 9.5163 118.059 9.30997 118.24 9.12594C118.742 8.61661 119.312 8.25662 119.998 7.80925C122.267 6.32557 126.373 5.17339 131.305 5.61456C133.161 5.78124 135.965 6.36058 137.335 8.0286C137.701 8.4741 137.882 9.3583 138.088 10.0036Z" fill="#1A1918"/>
<path fill-rule="evenodd" clip-rule="evenodd" d="M108.127 5.81604L114.461 5.7832C114.461 5.7832 110.931 20.4099 109.132 27.5424H101.846C96.7532 27.5424 92.2181 28.0932 90.2886 24.9087C88.4169 21.8168 90.2031 16.7319 91.0423 13.2775C91.6354 10.8328 92.8842 5.83587 92.8842 5.83587L99.4467 5.7832C99.4467 5.7832 97.5924 13.5628 96.8209 17.4472C96.5446 18.8386 95.9746 20.1488 96.5698 21.178C97.1352 22.157 97.9265 22.227 100.338 22.2753C101.102 22.2908 103.605 22.2753 103.605 22.2753L108.127 5.81604Z" fill="#1A1918"/>
<path fill-rule="evenodd" clip-rule="evenodd" d="M78.48 16.3499C79.1433 14.2915 80.1105 12.0596 79.9874 10.2051C79.8544 8.22139 77.9501 6.4152 76.7215 6.03568C73.0206 4.89434 69.556 6.48986 68.1791 7.79106C66.3975 9.47674 65.7946 11.4453 65.1639 14.1555C64.6943 16.1677 64.3098 18.2921 65.1639 19.8612C66.6763 22.6353 71.3923 22.0296 76.47 22.0559C77.2237 20.2916 77.8469 18.3097 78.48 16.3499ZM87.2738 8.23006C87.9974 12.8255 85.2212 17.8974 83.3091 22.3081C85.2588 22.4618 86.9673 22.2843 87.0904 22.4113C87.2185 22.5761 85.7838 27.6762 85.2836 27.6892C83.7361 27.7245 78.6084 27.7617 76.47 27.7617C69.4929 27.7617 62.9656 28.1589 59.6368 25.1283C58.2851 23.8971 57.3505 21.7858 57.1242 20.3002C56.7472 17.8202 57.2196 15.0902 57.8779 12.8388C58.4734 10.8064 59.2371 8.88841 60.3905 7.13272C63.3224 2.66247 68.4228 -0.655588 76.9726 0.110262C78.6307 0.25959 81.0125 0.89377 82.5 1.6463C82.6029 1.69928 82.9626 1.94929 83.0452 1.99328C85.0552 3.11046 86.8868 5.77668 87.2738 8.23006Z" fill="#1A1918"/>
<path fill-rule="evenodd" clip-rule="evenodd" d="M56.4031 5.8425C55.981 7.52135 55.559 9.42421 55.1142 11.0832H48.0793C48.6244 9.24421 49.0416 7.41602 49.5867 5.81616C51.8379 5.81616 53.9309 5.8425 56.4031 5.8425Z" fill="#1A1918"/>
<path fill-rule="evenodd" clip-rule="evenodd" d="M47.8281 12.6194H54.6115C53.7248 16.9078 51.9687 23.8249 50.5918 28.6396C49.73 31.6528 49.1546 33.8519 46.8229 35.4428C46.6144 35.5856 46.4941 35.5177 46.3207 35.6624C45.8908 36.0202 43.9035 36.4351 42.8032 36.5401C41.0142 36.7093 38.9918 36.5621 36.7934 36.5227C37.3687 34.6859 38.0196 32.4804 38.5321 30.8343C43.8911 31.4007 44.0269 26.9763 45.0644 22.7145C45.6649 20.2522 47.4841 13.6071 47.8281 12.6194Z" fill="#1A1918"/>
<path fill-rule="evenodd" clip-rule="evenodd" d="M31.9995 23.8116L31.854 24.1406C29.3765 28.354 24.9873 30.9394 18.7263 31.0534C15.7994 31.1061 13.0105 30.4502 11.1888 29.7367C7.25708 28.1939 3.95032 25.3325 2.14425 22.2753C-0.446397 17.8927 -0.913522 11.7963 4.47313 7.24268C4.55613 7.24268 3.8198 8.23004 3.90279 8.23004L3.75453 8.65138C-0.127177 19.2664 11.8319 28.363 23.4571 27.3227C26.251 27.0727 29.8139 25.7361 31.9995 23.8116Z" fill="#21609B"/>
<path fill-rule="evenodd" clip-rule="evenodd" d="M24.9645 19.4223C27.8893 19.44 30.9442 18.246 32.7532 16.5696C31.1705 20.0788 26.588 22.3345 20.4423 21.617C15.2968 21.0157 10.395 16.4928 9.88993 11.9609C9.5207 8.66263 10.8369 6.6941 13.0055 4.3064C12.2518 5.55524 11.9702 6.51844 11.9 7.13279C11.076 14.2674 18.4248 19.3851 24.9645 19.4223Z" fill="#21609B"/>
<path fill-rule="evenodd" clip-rule="evenodd" d="M32.4595 10.5607C32.0048 11.4716 29.3868 13.1919 28.2309 13.407C23.6533 14.2586 20.7214 12.3626 19.186 10.2051C18.9576 9.88256 18.5355 9.0027 18.4599 8.77871C17.8644 7.01001 18.1382 4.3348 19.9149 2.94995C19.3797 4.26664 19.3016 5.79617 19.5832 6.79035C19.7538 7.39169 20.2738 8.44102 20.7942 9.10122C21.7412 10.3039 22.3417 10.5961 23.5579 11.2346C24.1055 11.5221 24.6932 11.7526 24.9472 11.8161C26.1003 12.1123 28.5349 12.8936 32.4595 10.5607Z" fill="#21609B"/>
</svg>
