<svg width="75" height="65" viewBox="0 0 75 65" fill="none" xmlns="http://www.w3.org/2000/svg">
<path d="M0.280365 0H74.6963V65H0.280365V0Z" fill="#F7DF1E"/>
<path d="M19.847 54.3188L25.5418 51.3084C26.6405 53.0099 27.6399 54.4495 30.0371 54.4495C32.3351 54.4495 33.7838 53.6643 33.7838 50.6104V29.8413H40.777V50.6967C40.777 57.0234 36.5313 59.9031 30.3369 59.9031C24.7426 59.9031 21.4953 57.3723 19.8469 54.3183" fill="black"/>
<path d="M44.5756 53.6641L50.2697 50.7844C51.7686 52.9226 53.7168 54.4932 57.1633 54.4932C60.0609 54.4932 61.9087 53.2278 61.9087 51.4825C61.9087 49.3881 60.0106 48.6463 56.8136 47.425L55.0657 46.7701C50.0202 44.8943 46.6733 42.5382 46.6733 37.564C46.6733 32.9826 50.6694 29.4919 56.9137 29.4919C61.3595 29.4919 64.5565 30.8447 66.854 34.3789L61.4091 37.433C60.2102 35.557 58.9118 34.8153 56.9138 34.8153C54.8657 34.8153 53.5669 35.9497 53.5669 37.433C53.5669 39.2656 54.8657 40.0075 57.8626 41.142L59.6108 41.7964C65.5552 44.0218 68.9021 46.2904 68.9021 51.3952C68.9021 56.8932 63.9569 59.9035 57.3133 59.9035C50.8195 59.9035 46.6234 57.1984 44.5757 53.6641" fill="black"/>
</svg>
