<svg width="184" height="45" viewBox="0 0 184 45" fill="none" xmlns="http://www.w3.org/2000/svg">
<path fill-rule="evenodd" clip-rule="evenodd" d="M170.833 18.5733C170.668 18.6018 170.503 18.9147 170.503 19.0853C170.47 20.2229 170.437 23.2381 170.437 25.2858C170.437 25.3428 170.536 25.4564 170.635 25.4564C171.13 25.4849 172.319 25.5134 173.343 25.5134C174.762 25.5134 175.588 25.3428 176.05 25.1722C177.238 24.6602 177.8 23.5508 177.8 22.3277C177.8 19.5688 175.555 18.5163 172.22 18.5163C171.989 18.4881 171.329 18.4881 170.833 18.5733ZM179.352 31.2873C179.352 28.4716 176.941 26.907 172.583 26.907C172.385 26.907 170.999 26.8786 170.668 26.9355C170.569 26.964 170.437 27.0209 170.437 27.1064C170.437 29.1257 170.404 32.3398 170.503 33.5911C170.569 34.1316 171.032 34.8996 171.593 35.1272C172.187 35.4117 173.541 35.4683 174.465 35.4683C177.073 35.4683 179.352 34.217 179.352 31.2873ZM164.098 17.009C164.428 17.009 165.419 17.0942 167.961 17.0942C170.371 17.0942 172.286 17.0375 174.63 17.0375C177.502 17.0375 181.464 17.9192 181.464 21.6166C181.464 23.4371 179.979 24.8877 178.031 25.5988C177.932 25.6273 177.932 25.684 178.031 25.7124C180.804 26.3099 183.247 27.789 183.247 30.5763C183.247 33.3069 181.266 35.0417 178.394 36.1227C176.644 36.7768 174.465 37.0044 172.253 37.0044C170.569 37.0044 166.046 36.8338 163.537 36.8907C163.273 36.8053 163.768 35.7813 163.999 35.6107C164.594 35.5822 165.056 35.5538 165.683 35.3832C166.575 35.1841 166.673 34.9566 166.806 33.7905C166.872 32.7949 166.872 29.2678 166.872 26.7649C166.872 23.3232 166.905 20.991 166.872 19.8533C166.839 18.9717 166.475 18.6872 165.749 18.5163C165.188 18.4312 164.263 18.3173 163.504 18.2321C163.339 18.0897 163.9 17.1227 164.098 17.009ZM145.048 34.7006C145.841 35.2408 147.392 35.4683 148.779 35.4683C150.562 35.4683 152.345 35.1841 154.062 33.8471C155.812 32.482 157.033 30.3772 157.033 27.0209C157.033 23.8068 155.613 21.19 152.708 19.6542C151.057 18.7723 148.944 18.4027 146.501 18.4027C145.775 18.4027 145.081 18.4312 144.652 18.6018C144.553 18.6587 144.322 18.9147 144.322 19.0568C144.256 19.6258 144.256 24.0058 144.256 26.5659C144.256 29.2111 144.256 32.9085 144.322 33.3351C144.322 33.762 144.553 34.4161 145.048 34.7006ZM137.554 17.009C138.181 17.009 140.591 17.0942 141.747 17.0942C143.827 17.0942 145.312 17.009 149.241 17.009C152.543 17.009 155.316 17.7771 157.297 19.2274C159.707 21.0194 160.962 23.4941 160.962 26.5089C160.962 30.8038 158.684 33.2784 156.406 34.7006C154.128 36.1512 151.156 37.0044 146.93 37.0044C144.685 37.0044 140.822 36.9474 137.62 36.9189H137.587C137.422 36.6632 137.851 35.6677 138.115 35.6392C138.973 35.5538 139.204 35.5253 139.634 35.3832C140.327 35.1556 140.459 34.8427 140.558 33.7905C140.657 31.8278 140.624 29.4671 140.624 26.7934C140.624 24.8877 140.657 21.1615 140.591 19.9669C140.492 18.9717 139.997 18.7157 139.006 18.5448C138.511 18.4596 137.851 18.3457 136.927 18.2606C136.794 18.0613 137.389 17.1796 137.554 17.009Z" fill="#8E714E"/>
<path fill-rule="evenodd" clip-rule="evenodd" d="M97.6053 35.8097C96.7799 35.7243 96.1856 35.6107 95.4591 35.3262C95.3602 35.2692 95.195 34.985 95.195 34.8711C95.1289 33.8756 95.1289 31.0313 95.1289 29.1256C95.1289 27.5896 94.832 26.2529 94.0724 25.3143C93.1809 24.2333 91.8934 23.6077 90.2427 23.6077C88.7899 23.6077 86.842 24.4611 85.2243 25.6557C85.1912 25.6839 84.9271 25.8832 84.9602 25.5703C84.9602 25.2573 85.0263 24.6317 85.0593 24.2051C85.0924 23.8067 84.8283 23.6077 84.8283 23.6077C83.7715 24.0627 80.8002 24.6602 79.7107 24.7453C78.9184 24.8877 78.7204 25.5418 79.5458 25.7693H79.5788C80.47 25.9969 81.0643 26.2529 81.5265 26.5089C81.8567 26.7364 81.8236 27.0494 81.8236 27.3054C81.8567 29.4386 81.8567 32.7095 81.7578 34.5015C81.7248 35.2126 81.4937 35.4683 80.8994 35.5822L80.9652 35.5537C80.5031 35.6392 80.1398 35.7243 79.5785 35.7813C79.3805 35.9518 79.3805 36.8622 79.5785 37.0613C79.9418 37.0613 81.8567 36.9759 83.4416 36.9759C85.6206 36.9759 86.7432 37.0613 87.3044 37.0613C87.5355 36.8338 87.6016 35.9803 87.4694 35.7813C86.842 35.7528 86.3799 35.6961 85.9508 35.5822C85.3565 35.4683 85.1912 35.2126 85.1582 34.6151C85.0924 33.1076 85.0924 29.9221 85.0924 27.7604C85.0924 27.163 85.2904 26.8785 85.4884 26.7079C86.2477 26.1393 87.4694 25.7409 88.5589 25.7409C89.6153 25.7409 90.3088 26.0254 90.837 26.3953C91.5632 26.907 91.7943 27.6465 91.8934 28.187C92.0584 29.4101 91.9926 31.8278 91.9926 33.9325C91.9926 35.0702 91.8934 35.3547 91.3983 35.4968C91.1672 35.5822 90.5729 35.6961 89.8794 35.7528C89.6484 35.9518 89.7145 36.8338 89.8794 37.0328C90.837 37.0328 91.9596 36.9474 93.6103 36.9474C95.6571 36.9474 96.9779 37.0328 97.5062 37.0328C97.6711 36.8622 97.7372 36.0373 97.605 35.8097H97.6053ZM106.751 24.9446C105.001 24.9446 103.911 26.1108 103.911 27.931C103.911 29.7798 104.868 31.913 107.576 31.913C108.038 31.913 108.897 31.7424 109.293 31.3443C109.92 30.8323 110.349 29.8082 110.349 28.7275C110.349 26.3668 108.995 24.9446 106.751 24.9446ZM106.519 37.5164C105.859 37.5164 105.397 37.6869 105.1 37.8293C103.713 38.5971 103.086 39.3366 103.086 40.2185C103.086 41.0432 103.449 41.6973 104.241 42.2663C105.199 42.9774 106.519 43.3188 108.203 43.3188C111.571 43.3188 113.056 41.7543 113.056 40.2185C113.056 39.1375 112.429 38.4265 111.142 38.0284C110.217 37.6869 108.533 37.5164 106.519 37.5164ZM106.751 44.9115C104.737 44.9115 103.284 44.5416 102.029 43.7169C100.808 42.9204 100.279 41.7258 100.279 40.9011C100.279 40.6736 100.346 40.0477 100.94 39.479C101.303 39.1375 102.095 38.4834 103.977 37.3742C104.043 37.3458 104.076 37.3173 104.076 37.2603C104.076 37.2034 104.01 37.1464 103.944 37.1182C102.392 36.6062 101.93 35.7813 101.798 35.3262V35.2692C101.765 35.0987 101.699 34.9281 101.996 34.7572C102.227 34.6151 102.558 34.4445 102.921 34.2455C103.482 33.961 104.076 33.6481 104.439 33.392C104.506 33.3351 104.506 33.2784 104.506 33.2215C104.506 33.1645 104.439 33.1076 104.373 33.0794C102.062 32.425 100.907 30.9459 100.907 28.7275C100.907 27.2769 101.666 25.9684 103.02 25.1437C103.944 24.5178 106.255 23.75 107.774 23.75H107.873C109.425 23.7782 110.283 24.0627 111.505 24.4326C112.165 24.6317 112.792 24.7168 113.651 24.7168C114.938 24.7168 115.5 24.3757 115.962 23.9776C115.995 24.0343 116.061 24.1766 116.094 24.5463C116.127 24.9162 115.995 25.4564 115.665 25.8548C115.4 26.1675 114.806 26.3953 114.212 26.3953H114.047C113.452 26.3383 113.188 26.2814 113.188 26.2814L113.056 26.3383C113.023 26.3953 113.056 26.4519 113.09 26.5374L113.123 26.5943C113.188 26.8503 113.321 27.6181 113.321 27.8174C113.321 30.1497 112.231 31.1734 111.076 31.9414C109.953 32.6525 108.665 33.1076 107.213 33.2215C107.18 33.2215 107.048 33.2215 106.751 33.2499C106.585 33.2499 106.354 33.2784 106.321 33.2784H106.288C106.024 33.3351 105.364 33.6196 105.364 34.1031C105.364 34.5297 105.661 35.0417 107.08 35.1271C107.378 35.1556 107.675 35.1556 108.005 35.1841C109.887 35.2977 112.231 35.4401 113.321 35.7528C114.839 36.2363 115.797 37.4025 115.797 38.7964C115.797 40.9011 114.047 42.8637 111.142 44.0866C109.722 44.627 108.302 44.9115 106.751 44.9115ZM125.569 25.0868C124.876 25.0868 124.249 25.2289 123.786 25.5133C122.499 26.1959 121.839 27.5614 121.839 29.5522C121.839 33.2784 124.017 35.8952 127.121 35.8952C128.046 35.8952 128.772 35.6676 129.399 35.2126C130.356 34.5297 130.852 33.1645 130.852 31.2588C130.852 27.5614 128.706 25.0868 125.569 25.0868ZM126.164 37.2603C120.551 37.2603 118.537 33.705 118.537 30.3772C118.537 28.0449 119.626 26.2529 121.805 24.9729C123.357 24.1482 125.206 23.6931 126.857 23.6931C131.149 23.6931 134.153 26.3383 134.153 30.1497C134.153 32.7379 132.965 34.7857 130.687 36.0373C129.597 36.6629 127.715 37.2603 126.163 37.2603H126.164ZM67.33 25.0868C66.6366 25.0868 66.0095 25.2289 65.5471 25.5133C64.2596 26.1959 63.5992 27.5614 63.5992 29.5522C63.5992 33.2784 65.7781 35.8952 68.8816 35.8952C69.8062 35.8952 70.5324 35.6676 71.1598 35.2126C72.1171 34.5297 72.6125 33.1645 72.6125 31.2588C72.6125 27.5614 70.4994 25.0868 67.33 25.0868ZM67.9244 37.2603C62.3117 37.2603 60.2976 33.705 60.2976 30.3772C60.2976 28.0449 61.3871 26.2529 63.5661 24.9729C65.118 24.1482 66.9668 23.6931 68.6175 23.6931C72.9097 23.6931 75.9141 26.3383 75.9141 30.1497C75.9141 32.7379 74.7254 34.7857 72.4473 36.0373C71.3908 36.6629 69.509 37.2603 67.9244 37.2603ZM30.1876 36.9759C30.1215 36.8907 30.0554 36.6347 30.0885 36.3217C30.0885 36.0942 30.1546 35.9518 30.1876 35.8952C30.8808 35.8097 31.2441 35.7243 31.6401 35.6392C32.3005 35.4968 32.5646 35.1841 32.5977 34.473C32.6968 32.7664 32.6968 29.5237 32.6638 27.2769V27.22C32.6638 26.964 32.6638 26.651 32.3005 26.4235C31.7723 26.1393 31.1449 25.8832 30.3195 25.6839C30.0224 25.5988 29.8244 25.4564 29.8574 25.2858C29.8574 25.1152 30.0554 24.9162 30.4848 24.8592C31.5743 24.7738 34.4134 24.1766 35.5359 23.75C35.602 23.8067 35.7012 23.9776 35.7012 24.2051L35.6681 24.5178C35.6351 24.8307 35.602 25.2007 35.602 25.5703C35.602 25.6839 35.7342 25.7693 35.8661 25.7693C35.9322 25.7693 35.9983 25.7409 36.0644 25.7124C38.1773 24.2903 40.0922 23.7782 41.0825 23.7782C42.7005 23.7782 43.955 24.4326 44.9126 25.7978C44.9784 25.8832 45.0445 25.9115 45.1436 25.9115C45.2097 25.9115 45.3086 25.8832 45.3416 25.8263C47.2896 24.5463 49.2375 23.7782 50.525 23.7782C53.5954 23.7782 55.4115 25.7409 55.4115 29.0687C55.4115 30.0073 55.4115 31.2304 55.3784 32.3398C55.3784 33.3351 55.3454 34.2455 55.3454 34.8996C55.3454 35.0417 55.5764 35.4968 55.9397 35.5822C56.4018 35.7813 57.0292 35.8667 57.8545 35.9803H57.8876C57.9537 36.1794 57.8215 36.9189 57.6896 37.0613C57.4913 37.0613 57.1941 37.0613 56.8642 37.0328C56.2368 37.0043 55.3454 36.9759 54.355 36.9759C52.3079 36.9759 51.2515 37.0043 50.2278 37.0613C50.162 36.8338 50.129 36.1512 50.2278 35.9803C50.8221 35.8952 51.1193 35.8097 51.4826 35.7243C52.143 35.5537 52.3079 35.2977 52.341 34.5582C52.341 34.018 52.4729 29.4101 52.2749 28.3007C52.0769 27.163 51.0862 25.8263 48.9073 25.8263C48.0819 25.8263 46.7944 26.1108 45.5396 26.9355C45.4738 26.9924 45.4077 27.1345 45.4077 27.22V27.2484C45.5396 27.8456 45.5396 28.5285 45.5396 29.5807V31.4294C45.5396 32.7095 45.5066 33.9041 45.5396 34.8142C45.5396 35.4401 45.969 35.5822 46.3323 35.6961C46.5303 35.7243 46.6622 35.7528 46.8274 35.7813C47.1246 35.8382 47.4218 35.8952 47.8839 35.9803C47.95 36.0942 47.95 36.4639 47.8508 36.7768C47.8178 36.9474 47.7517 37.0328 47.7189 37.0613C46.5964 37.0328 45.4408 37.0043 43.757 37.0043C43.2618 37.0043 42.4034 37.0328 41.6768 37.0328C41.0825 37.0328 40.5213 37.0613 40.1913 37.0613C40.1583 37.0043 40.0922 36.8053 40.0922 36.4923C40.0922 36.2363 40.1583 36.0373 40.2244 35.9803C40.3894 35.9518 40.5213 35.9236 40.6865 35.9236C41.0825 35.8667 41.4127 35.8097 41.743 35.7528C42.3042 35.6107 42.5022 35.3547 42.5353 34.729C42.6344 33.3069 42.7333 29.2395 42.5022 28.2155C42.1062 26.5658 41.0167 25.7409 39.2668 25.7409C38.2434 25.7409 36.9556 26.1675 35.8992 26.8503C35.7342 26.964 35.602 27.2484 35.602 27.5044V29.1826C35.602 31.2304 35.602 33.7904 35.6351 34.8996C35.6681 35.2408 35.8 35.6392 36.5596 35.7813C36.7246 35.8097 36.9887 35.8667 37.3189 35.8952L37.9132 35.9803C37.9793 36.1512 37.9463 36.8338 37.8141 37.0613C37.4838 37.0613 37.0878 37.0328 36.6254 37.0328C35.9322 37.0043 35.0408 36.9759 34.0504 36.9759C32.8948 36.9759 32.0694 37.0043 31.409 37.0328C30.9469 36.9759 30.5836 36.9759 30.1876 36.9759Z" fill="#442D22"/>
<path fill-rule="evenodd" clip-rule="evenodd" d="M12.8213 43.8024L11.4677 43.404C11.4677 43.404 11.6329 37.4594 9.15678 37.0329C7.50602 35.3832 9.42089 -32.9369 15.3635 36.8053C15.3635 36.8053 13.3167 37.687 12.9535 39.1945C12.5571 40.6736 12.8213 43.8024 12.8213 43.8024Z" fill="white"/>
<path fill-rule="evenodd" clip-rule="evenodd" d="M12.8213 43.8024L11.4677 43.404C11.4677 43.404 11.6329 37.4594 9.15678 37.0329C7.50602 35.3832 9.42089 -32.9369 15.3635 36.8053C15.3635 36.8053 13.3167 37.687 12.9535 39.1945C12.5571 40.6736 12.8213 43.8024 12.8213 43.8024Z" fill="#A6A385"/>
<path fill-rule="evenodd" clip-rule="evenodd" d="M13.5478 38.0567C13.5478 38.0567 25.4003 31.3441 22.627 17.3785C19.9529 7.22446 13.6467 3.89664 12.9535 2.61661C12.1942 1.70649 11.4677 0.11377 11.4677 0.11377L11.9632 28.3575C11.9632 28.3859 10.9395 37.0042 13.5478 38.0567Z" fill="white"/>
<path fill-rule="evenodd" clip-rule="evenodd" d="M13.5478 38.0567C13.5478 38.0567 25.4003 31.3441 22.627 17.3785C19.9529 7.22446 13.6467 3.89664 12.9535 2.61661C12.1942 1.70649 11.4677 0.11377 11.4677 0.11377L11.9632 28.3575C11.9632 28.3859 10.9395 37.0042 13.5478 38.0567Z" fill="#499D4A"/>
<path fill-rule="evenodd" clip-rule="evenodd" d="M10.7745 38.4264C10.7745 38.4264 -0.351783 31.8844 0.308644 20.3652C0.935711 8.84578 8.7935 3.1857 10.3121 2.16168C11.3027 1.25155 11.3357 0.910125 11.4019 0C12.095 1.28003 11.9631 19.1422 12.062 21.2469C12.3591 29.3531 11.5338 36.8907 10.7745 38.4264Z" fill="white"/>
<path fill-rule="evenodd" clip-rule="evenodd" d="M10.7745 38.4264C10.7745 38.4264 -0.351783 31.8844 0.308644 20.3652C0.935711 8.84578 8.7935 3.1857 10.3121 2.16168C11.3027 1.25155 11.3357 0.910125 11.4019 0C12.095 1.28003 11.9631 19.1422 12.062 21.2469C12.3591 29.3531 11.5338 36.8907 10.7745 38.4264Z" fill="#58AA50"/>
</svg>
