<svg width="120" height="65" viewBox="0 0 120 65" fill="none" xmlns="http://www.w3.org/2000/svg">
<path d="M59.0921 64.8125C58.6889 64.8125 58.3127 64.7168 57.9633 64.5493L54.3886 62.6593C53.8511 62.3961 54.1198 62.3004 54.2811 62.2525C55.0068 62.0372 55.1412 61.9894 55.8937 61.6066C55.9744 61.5587 56.0819 61.5826 56.1625 61.6305L58.904 63.0899C59.0115 63.1378 59.1459 63.1378 59.2265 63.0899L69.9504 57.5633C70.0579 57.5154 70.1117 57.4197 70.1117 57.3001V46.2707C70.1117 46.1511 70.0579 46.0554 69.9504 46.0075L59.2265 40.5048C59.119 40.457 58.9846 40.457 58.904 40.5048L48.18 46.0075C48.0725 46.0554 48.0187 46.175 48.0187 46.2707V57.3001C48.0187 57.3958 48.0725 57.5154 48.18 57.5633L51.1096 59.0705C52.6954 59.7883 53.6898 58.9509 53.6898 58.1135V47.2277C53.6898 47.0842 53.8242 46.9406 54.0123 46.9406H55.3831C55.5443 46.9406 55.7056 47.0602 55.7056 47.2277V58.1135C55.7056 60.0036 54.5499 61.1042 52.5341 61.1042C51.9159 61.1042 51.4321 61.1041 50.0614 60.506L47.2393 59.0705C46.5405 58.7117 46.1105 58.0418 46.1105 57.324V46.2946C46.1105 45.5769 46.5405 44.907 47.2393 44.5481L57.9633 39.0215C58.6352 38.6865 59.549 38.6865 60.2209 39.0215L70.9449 44.5481C71.6437 44.907 72.0737 45.5769 72.0737 46.2946V57.324C72.0737 58.0418 71.6437 58.7117 70.9449 59.0705L60.2209 64.5972C59.8715 64.7407 59.4684 64.8125 59.0921 64.8125ZM62.398 57.2283C57.6945 57.2283 56.7269 55.3143 56.7269 53.6874C56.7269 53.5439 56.8613 53.4003 57.0494 53.4003H58.447C58.6083 53.4003 58.7427 53.496 58.7427 53.6396C58.9577 54.9076 59.5759 55.5296 62.4249 55.5296C64.6825 55.5296 65.6501 55.0751 65.6501 53.9985C65.6501 53.3764 65.3813 52.9218 61.8604 52.6108C58.9308 52.3476 57.1032 51.7734 57.1032 49.692C57.1032 47.7541 58.9308 46.6057 61.9948 46.6057C65.4351 46.6057 67.1283 47.6584 67.3434 49.9552C67.3434 50.0269 67.3165 50.0987 67.2627 50.1705C67.209 50.2183 67.1283 50.2662 67.0477 50.2662H65.6501C65.5157 50.2662 65.3813 50.1705 65.3545 50.0508C65.0319 48.735 64.1987 48.3043 61.9948 48.3043C59.5221 48.3043 59.2265 49.0699 59.2265 49.6441C59.2265 50.3379 59.5759 50.5533 62.9086 50.9361C66.2145 51.3189 67.7734 51.8691 67.7734 53.9267C67.7465 56.0321 65.8114 57.2283 62.398 57.2283Z" fill="#539E43"/>
<path d="M25.8183 21.676C25.8183 21.2454 25.5495 20.8386 25.1195 20.6233L13.7236 14.7856C13.5354 14.6899 13.3204 14.6421 13.1054 14.6182H12.9979C12.7829 14.6182 12.5679 14.6899 12.3797 14.7856L0.983853 20.6233C0.55382 20.8386 0.285049 21.2454 0.285049 21.676L0.311927 37.3707C0.311927 37.5861 0.446312 37.8014 0.661328 37.8971C0.876345 38.0167 1.14512 38.0167 1.33326 37.8971L8.10628 34.4519C8.53631 34.2366 8.80508 33.8299 8.80508 33.3992V26.0543C8.80508 25.6236 9.07385 25.2169 9.50388 25.0016L12.3797 23.5182C12.5947 23.3986 12.8366 23.3507 13.0785 23.3507C13.3204 23.3507 13.5623 23.3986 13.7505 23.5182L16.6263 25.0016C17.0563 25.2169 17.3251 25.6236 17.3251 26.0543V33.3992C17.3251 33.8299 17.5939 34.2366 18.0239 34.4519L24.7969 37.8971C25.012 38.0167 25.2807 38.0167 25.4957 37.8971C25.7108 37.8014 25.8451 37.5861 25.8451 37.3707L25.8183 21.676Z" fill="#333333"/>
<path d="M80.5937 0.0717747C80.3787 -0.0239249 80.11 -0.0239249 79.9218 0.0717747C79.7068 0.191399 79.5724 0.382798 79.5724 0.598122V16.1493C79.5724 16.2929 79.4918 16.4364 79.3305 16.5321C79.1693 16.6039 79.008 16.6039 78.8467 16.5321L75.9978 15.0727C75.5677 14.8574 75.0571 14.8574 74.627 15.0727L63.2312 20.9343C62.8011 21.1496 62.5324 21.5563 62.5324 21.987V33.6862C62.5324 34.1169 62.8011 34.5236 63.2312 34.7389L74.627 40.6005C75.0571 40.8159 75.5677 40.8159 75.9978 40.6005L87.3936 34.7389C87.8237 34.5236 88.0925 34.1169 88.0925 33.6862V4.5218C88.0925 4.06723 87.8237 3.66051 87.3936 3.44518L80.5937 0.0717747ZM79.5455 29.8343C79.5455 29.954 79.4918 30.0497 79.3843 30.0975L75.4871 32.1072C75.3796 32.1551 75.2452 32.1551 75.1377 32.1072L71.2405 30.0975C71.133 30.0497 71.0793 29.93 71.0793 29.8343V25.815C71.0793 25.6953 71.133 25.5996 71.2405 25.5518L75.1377 23.5421C75.2452 23.4942 75.3796 23.4942 75.4871 23.5421L79.3843 25.5518C79.4918 25.5996 79.5455 25.7193 79.5455 25.815V29.8343Z" fill="#333333"/>
<path d="M118.517 25.7192C118.947 25.5039 119.189 25.0972 119.189 24.6665V21.8194C119.189 21.3888 118.92 20.9821 118.517 20.7667L107.202 14.9291C106.772 14.7137 106.261 14.7137 105.831 14.9291L94.4354 20.7907C94.0054 21.006 93.7366 21.4127 93.7366 21.8434V33.5426C93.7366 33.9733 94.0054 34.38 94.4354 34.5953L105.751 40.3373C106.181 40.5526 106.691 40.5526 107.095 40.3373L113.948 36.94C114.163 36.8443 114.298 36.629 114.298 36.4136C114.298 36.1983 114.163 35.983 113.948 35.8873L102.499 30.0257C102.284 29.9061 102.149 29.7147 102.149 29.4993V25.8388C102.149 25.6235 102.284 25.4082 102.499 25.3125L106.073 23.4942C106.288 23.3746 106.557 23.3746 106.772 23.4942L110.347 25.3125C110.562 25.4321 110.696 25.6235 110.696 25.8388V28.7098C110.696 28.9251 110.83 29.1405 111.045 29.2362C111.26 29.3558 111.529 29.3558 111.744 29.2362L118.517 25.7192Z" fill="#333333"/>
<path d="M106.342 25.1689C106.423 25.1211 106.53 25.1211 106.611 25.1689L108.788 26.2934C108.868 26.3413 108.922 26.413 108.922 26.5087V28.7577C108.922 28.8534 108.868 28.9252 108.788 28.973L106.611 30.0975C106.53 30.1453 106.423 30.1453 106.342 30.0975L104.165 28.973C104.084 28.9252 104.031 28.8534 104.031 28.7577V26.5087C104.031 26.413 104.084 26.3413 104.165 26.2934L106.342 25.1689Z" fill="#539E43"/>
<mask id="mask0_15_1923" style="mask-type:alpha" maskUnits="userSpaceOnUse" x="31" y="14" width="26" height="27">
<path d="M44.8741 14.9769C44.4441 14.7616 43.9334 14.7616 43.5034 14.9769L32.1881 20.7907C31.7581 21.006 31.5162 21.4127 31.5162 21.8434V33.4948C31.5162 33.9254 31.785 34.3322 32.1881 34.5475L43.5034 40.3612C43.9334 40.5766 44.4441 40.5766 44.8741 40.3612L56.1893 34.5475C56.6194 34.3322 56.8613 33.9254 56.8613 33.4948V21.8434C56.8613 21.4127 56.5925 21.006 56.1893 20.7907L44.8741 14.9769Z" fill="white"/>
</mask>
<g mask="url(#mask0_15_1923)">
<path d="M44.8741 14.9769C44.4441 14.7616 43.9334 14.7616 43.5034 14.9769L32.1881 20.7907C31.7581 21.006 31.5162 21.4127 31.5162 21.8434V33.4948C31.5162 33.9254 31.785 34.3322 32.1881 34.5475L43.5034 40.3612C43.9334 40.5766 44.4441 40.5766 44.8741 40.3612L56.1893 34.5475C56.6194 34.3322 56.8613 33.9254 56.8613 33.4948V21.8434C56.8613 21.4127 56.5925 21.006 56.1893 20.7907L44.8741 14.9769Z" fill="url(#paint0_linear_15_1923)"/>
<path d="M56.2162 20.7901L44.8472 14.9763C44.7397 14.9285 44.6053 14.8806 44.4978 14.8567L31.7581 34.2837C31.8656 34.4033 32 34.499 32.1344 34.5708L43.5034 40.3845C43.8259 40.552 44.2022 40.5999 44.5516 40.5042L56.5119 21.0293C56.4312 20.9336 56.3237 20.8618 56.2162 20.7901Z" fill="url(#paint1_linear_15_1923)"/>
<path fill-rule="evenodd" clip-rule="evenodd" d="M56.2431 34.5476C56.5656 34.3802 56.8075 34.0931 56.915 33.782L44.4441 14.8335C44.1215 14.7857 43.7721 14.8096 43.4765 14.9771L32.1881 20.7669L44.3634 40.5289C44.5247 40.5049 44.7128 40.4571 44.8741 40.3853L56.2431 34.5476Z" fill="url(#paint2_linear_15_1923)"/>
<path fill-rule="evenodd" clip-rule="evenodd" d="M56.2431 34.5473L44.901 40.3611C44.7397 40.4328 44.5784 40.4807 44.3903 40.5046L44.6053 40.8635L57.1838 34.3799V34.2363L56.8613 33.7578C56.8075 34.0928 56.5656 34.3799 56.2431 34.5473Z" fill="url(#paint3_linear_15_1923)"/>
<path fill-rule="evenodd" clip-rule="evenodd" d="M56.2431 34.5473L44.901 40.3611C44.7397 40.4328 44.5784 40.4807 44.3903 40.5046L44.6053 40.8635L57.1838 34.3799V34.2363L56.8613 33.7578C56.8075 34.0928 56.5656 34.3799 56.2431 34.5473Z" fill="url(#paint4_linear_15_1923)"/>
</g>
<defs>
<linearGradient id="paint0_linear_15_1923" x1="48.7986" y1="19.3108" x2="38.3449" y2="37.7627" gradientUnits="userSpaceOnUse">
<stop stop-color="#41873F"/>
<stop offset="0.3288" stop-color="#418B3D"/>
<stop offset="0.6352" stop-color="#419637"/>
<stop offset="0.9319" stop-color="#3FA92D"/>
<stop offset="1" stop-color="#3FAE2A"/>
</linearGradient>
<linearGradient id="paint1_linear_15_1923" x1="42.4707" y1="29.033" x2="71.7819" y2="11.1433" gradientUnits="userSpaceOnUse">
<stop offset="0.1376" stop-color="#41873F"/>
<stop offset="0.4032" stop-color="#54A044"/>
<stop offset="0.7136" stop-color="#66B848"/>
<stop offset="0.9081" stop-color="#6CC04A"/>
</linearGradient>
<linearGradient id="paint2_linear_15_1923" x1="31.1029" y1="27.6696" x2="57.2857" y2="27.6696" gradientUnits="userSpaceOnUse">
<stop offset="0.0919165" stop-color="#6CC04A"/>
<stop offset="0.2864" stop-color="#66B848"/>
<stop offset="0.5968" stop-color="#54A044"/>
<stop offset="0.8624" stop-color="#41873F"/>
</linearGradient>
<linearGradient id="paint3_linear_15_1923" x1="31.1029" y1="37.3302" x2="57.2857" y2="37.3302" gradientUnits="userSpaceOnUse">
<stop offset="0.0919165" stop-color="#6CC04A"/>
<stop offset="0.2864" stop-color="#66B848"/>
<stop offset="0.5968" stop-color="#54A044"/>
<stop offset="0.8624" stop-color="#41873F"/>
</linearGradient>
<linearGradient id="paint4_linear_15_1923" x1="61.1003" y1="18.7599" x2="55.8057" y2="49.927" gradientUnits="userSpaceOnUse">
<stop stop-color="#41873F"/>
<stop offset="0.3288" stop-color="#418B3D"/>
<stop offset="0.6352" stop-color="#419637"/>
<stop offset="0.9319" stop-color="#3FA92D"/>
<stop offset="1" stop-color="#3FAE2A"/>
</linearGradient>
</defs>
</svg>
