<svg width="83" height="65" viewBox="0 0 83 65" fill="none" xmlns="http://www.w3.org/2000/svg">
<path d="M0.532532 32.4294C0.532532 37.8596 6.5739 42.9288 16.0986 45.7861C14.1966 54.1903 15.7577 60.9639 20.9721 63.6034C26.3319 66.3162 34.3166 64.4383 41.8952 58.624C49.2827 64.2036 56.749 66.3995 61.9584 63.7525C67.313 61.0319 68.9417 53.7988 66.9871 45.1323C76.9076 42.2536 82.4569 37.931 82.4569 32.4294C82.4569 27.1252 76.4043 22.5363 67.008 19.6972C69.1122 10.6726 67.3293 4.0633 61.8991 1.31488C56.6639 -1.33477 49.1109 0.974672 41.6148 6.70042C33.8164 0.622991 26.338 -1.23252 20.9131 1.52391C15.6829 4.18109 14.1905 11.0779 16.0986 19.6376C6.89551 22.4539 0.532532 27.1464 0.532532 32.4294Z" fill="white"/>
<path d="M65.018 22.5166C64.2632 22.2885 63.4811 22.0728 62.6759 21.8688C62.8082 21.3947 62.9297 20.9267 63.0377 20.4667C64.8106 12.9133 63.6514 6.82827 59.6931 4.82481C55.8976 2.90376 49.6903 4.90677 43.4212 9.69525C42.8184 10.1557 42.2138 10.6432 41.6096 11.1541C41.2069 10.8161 40.805 10.4894 40.404 10.177C33.8338 5.0568 27.2482 2.8991 23.2938 4.90836C19.5019 6.83498 18.379 12.5555 19.9749 19.7139C20.129 20.4053 20.3091 21.1114 20.5128 21.8293C19.5808 22.0616 18.681 22.3091 17.82 22.5725C10.1172 24.9296 5.19783 28.6237 5.19783 32.4554C5.19783 36.4129 10.4788 40.3823 18.5019 42.7892C19.135 42.9791 19.792 43.1587 20.4691 43.3292C20.2493 44.1057 20.0581 44.8665 19.8977 45.6086C18.376 52.6428 19.5643 58.2282 23.3461 60.1427C27.2524 62.1198 33.8082 60.0875 40.1919 55.1899C40.6964 54.8028 41.2028 54.3922 41.7101 53.9619C42.3676 54.5176 43.024 55.0435 43.677 55.5368C49.8603 60.207 55.9674 62.0928 59.7457 60.173C63.6481 58.1902 64.9163 52.1902 63.2698 44.8902C63.144 44.3326 62.9977 43.7631 62.8334 43.1834C63.2937 43.0639 63.7457 42.9406 64.1864 42.8124C72.5272 40.3869 77.954 36.4658 77.954 32.4554C77.954 28.6098 72.8759 24.8908 65.018 22.5166Z" fill="#53C1DE"/>
<path d="M63.2089 40.2229C62.8111 40.3385 62.4029 40.4502 61.9869 40.5586C61.0661 38.0001 59.8234 35.2795 58.3026 32.4687C59.7539 29.7248 60.9485 27.039 61.8435 24.4971C62.5878 24.6861 63.3102 24.8855 64.0063 25.0959C70.739 27.1302 74.8458 30.1379 74.8458 32.4554C74.8458 34.924 70.4106 38.1285 63.2089 40.2229ZM60.2207 45.4199C60.9488 48.6479 61.0528 51.5663 60.5705 53.8478C60.1372 55.8979 59.2658 57.2647 58.1883 57.8121C55.8954 58.977 50.9921 57.4628 45.704 53.4689C45.0978 53.011 44.4872 52.5222 43.8746 52.0048C45.9247 50.0369 47.9736 47.7491 49.9733 45.2084C53.4905 44.9344 56.8134 44.4866 59.8269 43.8752C59.9753 44.4007 60.1071 44.916 60.2207 45.4199ZM30.002 57.6108C27.7619 58.3052 25.9777 58.3251 24.8992 57.7793C22.6042 56.6175 21.6501 52.133 22.9515 46.1174C23.1006 45.4284 23.278 44.7208 23.4825 43.9974C26.4629 44.5758 29.7615 44.9921 33.2872 45.2429C35.3003 47.7291 37.4084 50.0144 39.5328 52.0153C39.0687 52.4086 38.6063 52.783 38.1466 53.1358C35.3238 55.3015 32.495 56.838 30.002 57.6108ZM19.5071 40.2078C15.9594 39.1436 13.0296 37.7604 11.0214 36.251C9.21688 34.8946 8.30582 33.548 8.30582 32.4554C8.30582 30.1301 12.2556 27.1643 18.8431 25.1484C19.6424 24.9038 20.4791 24.6733 21.3475 24.4568C22.2579 27.0561 23.4522 29.7737 24.8935 32.5218C23.4335 35.3107 22.2223 38.0716 21.3029 40.7013C20.6839 40.5452 20.0842 40.3808 19.5071 40.2078ZM23.0251 19.19C21.6578 13.0568 22.5659 8.43022 24.851 7.26925C27.285 6.03246 32.6674 7.79586 38.3402 12.2169C38.7028 12.4994 39.0669 12.7952 39.4319 13.1012C37.318 15.0934 35.2292 17.3615 33.234 19.833C29.8122 20.1114 26.5367 20.5585 23.5252 21.1573C23.3359 20.4888 23.1682 19.8321 23.0251 19.19ZM54.4088 25.9916C53.6889 24.9002 52.9498 23.8346 52.1963 22.7981C54.5177 23.0556 56.7418 23.3975 58.8305 23.8159C58.2034 25.5798 57.4219 27.424 56.5019 29.3146C55.8419 28.2149 55.1439 27.1061 54.4088 25.9916ZM41.6106 15.0508C43.0442 16.4139 44.4799 17.9359 45.892 19.5872C44.469 19.5283 43.0284 19.4976 41.5759 19.4976C40.1371 19.4976 38.7071 19.5276 37.2929 19.5855C38.7065 17.9496 40.1546 16.4296 41.6106 15.0508ZM28.7304 26.0105C28.0113 27.1049 27.3262 28.2077 26.6766 29.3125C25.7715 27.4285 24.9972 25.5759 24.3647 23.7871C26.4405 23.3793 28.6542 23.046 30.9608 22.7933C30.1967 23.8393 29.4515 24.9128 28.7304 26.0102V26.0105ZM31.0272 42.3121C28.644 42.0787 26.3971 41.7625 24.3218 41.366C24.9644 39.5452 25.7558 37.6531 26.6801 35.7285C27.3314 36.8325 28.0192 37.9357 28.7427 39.0326H28.7429C29.4799 40.1501 30.2434 41.2447 31.0272 42.3121ZM41.6966 50.0523C40.2235 48.6573 38.7541 47.1142 37.3191 45.4543C38.7122 45.5023 40.1324 45.5269 41.5759 45.5269C43.0589 45.5269 44.5249 45.4975 45.9678 45.4412C44.551 47.1309 43.1205 48.6764 41.6966 50.0523ZM56.5315 35.6304C57.504 37.5758 58.3237 39.4581 58.9746 41.2478C56.8651 41.6702 54.5875 42.0104 52.1878 42.2632C52.9431 41.2127 53.6886 40.1288 54.4212 39.0139C55.1624 37.8858 55.8661 36.7561 56.5315 35.6304ZM51.729 37.651C50.5916 39.3818 49.424 41.034 48.2387 42.5936C46.0797 42.7291 43.8492 42.7989 41.5759 42.7989C39.3118 42.7989 37.1094 42.7372 34.9886 42.6164C33.7555 41.0363 32.5625 39.3792 31.4324 37.6659H31.4327C30.3056 35.9573 29.2683 34.2342 28.3283 32.5209C29.268 30.8035 30.3026 29.0785 31.4232 27.373L31.423 27.3733C32.5465 25.6632 33.7291 24.0142 34.9508 22.444C37.1146 22.3004 39.3334 22.2255 41.5758 22.2255H41.5759C43.8284 22.2255 46.05 22.301 48.2132 22.4458C49.4163 24.0045 50.5907 25.6482 51.7187 27.3585C52.8595 29.0881 53.9075 30.8016 54.8552 32.4821C53.9103 34.1915 52.8647 35.9223 51.729 37.651ZM58.1406 7.18809C60.577 8.42124 61.5244 13.3945 59.9937 19.9161C59.8961 20.3322 59.7861 20.7561 59.6667 21.1856C56.6482 20.5743 53.3704 20.1194 49.9387 19.8369C47.9395 17.3382 45.8678 15.0666 43.7884 13.0999C44.3474 12.6279 44.9057 12.1778 45.4617 11.753C50.833 7.65025 55.8533 6.03041 58.1406 7.18809Z" fill="white"/>
<path d="M41.5759 26.7532C45.164 26.7532 48.0728 29.3061 48.0728 32.4554C48.0728 35.6046 45.164 38.1576 41.5759 38.1576C37.9878 38.1576 35.079 35.6046 35.079 32.4554C35.079 29.3061 37.9878 26.7532 41.5759 26.7532Z" fill="#53C1DE"/>
</svg>
