<svg width="30" height="24" viewBox="0 0 30 24" fill="none" xmlns="http://www.w3.org/2000/svg">
<path d="M0.75235 0V20.5205H9.93873V21.9877H8.25968V23.4526H21.8665V21.9877H20.1874V20.5205H29.3738V0H0.75235ZM18.5103 21.9877H11.6159V20.5205H18.5103V21.9877H18.5103ZM27.6967 19.0556H2.42945V16.1222H27.6967V19.0556H27.6967ZM27.6967 14.6573H2.42945V1.46494H27.6967V14.6573H27.6967Z" fill="black"/>
<path d="M12.153 5.4134L10.9671 4.37756L6.75 8.06111L10.9671 11.7446L12.153 10.7088L9.12178 8.06111L12.153 5.4134Z" fill="black"/>
<path d="M19.1591 4.37756L17.9732 5.4134L21.0044 8.06111L17.9732 10.7088L19.1591 11.7446L23.3762 8.06111L19.1591 4.37756Z" fill="black"/>
<path d="M15.2141 3.64405L13.2672 12.1931L14.9121 12.4789L16.859 3.92986L15.2141 3.64405Z" fill="black"/>
</svg>
