<svg width="16" height="25" viewBox="0 0 16 25" fill="none" xmlns="http://www.w3.org/2000/svg">
<path d="M13.5098 0H1.88229C1.40805 0.000542615 0.95341 0.165337 0.618071 0.458245C0.282732 0.751153 0.094066 1.14827 0.0934448 1.5625V22.6562C0.094066 23.0705 0.282732 23.4676 0.618071 23.7605C0.95341 24.0534 1.40805 24.2182 1.88229 24.2188H13.5098C13.984 24.2182 14.4386 24.0534 14.774 23.7605C15.1093 23.4676 15.298 23.0705 15.2986 22.6562V1.5625C15.298 1.14827 15.1093 0.751153 14.774 0.458245C14.4386 0.165337 13.984 0.000542615 13.5098 0V0ZM9.78898 0.78125L9.53742 1.5625H5.80936L5.58575 0.78125H9.78898ZM14.4042 22.6562C14.4039 22.8634 14.3095 23.0619 14.1419 23.2084C13.9742 23.3548 13.7469 23.4372 13.5098 23.4375H1.88229C1.64517 23.4372 1.41785 23.3548 1.25018 23.2084C1.08251 23.0619 0.988177 22.8634 0.987867 22.6562V1.5625C0.988177 1.35538 1.08251 1.15683 1.25018 1.01037C1.41785 0.863918 1.64517 0.781521 1.88229 0.78125H4.66338L5.02618 2.04785C5.05036 2.13236 5.10619 2.20738 5.18479 2.261C5.26339 2.31461 5.36025 2.34374 5.45998 2.34375H9.87618C9.97364 2.34375 10.0684 2.31594 10.1461 2.26455C10.2238 2.21317 10.2802 2.14102 10.3066 2.05908L10.7181 0.78125H13.5098C13.7469 0.781521 13.9742 0.863918 14.1419 1.01037C14.3095 1.15683 14.4039 1.35538 14.4042 1.5625V22.6562Z" fill="black"/>
<path d="M5.46001 21.875H2.32954C2.21093 21.875 2.09718 21.9162 2.01331 21.9894C1.92944 22.0627 1.88232 22.162 1.88232 22.2656C1.88232 22.3692 1.92944 22.4686 2.01331 22.5418C2.09718 22.6151 2.21093 22.6562 2.32954 22.6562H5.46001C5.57862 22.6562 5.69237 22.6151 5.77624 22.5418C5.86011 22.4686 5.90722 22.3692 5.90722 22.2656C5.90722 22.162 5.86011 22.0627 5.77624 21.9894C5.69237 21.9162 5.57862 21.875 5.46001 21.875Z" fill="black"/>
<path d="M7.24885 21.875H6.80164C6.68303 21.875 6.56928 21.9162 6.48542 21.9894C6.40155 22.0627 6.35443 22.162 6.35443 22.2656C6.35443 22.3692 6.40155 22.4686 6.48542 22.5418C6.56928 22.6151 6.68303 22.6562 6.80164 22.6562H7.24885C7.36746 22.6562 7.48121 22.6151 7.56508 22.5418C7.64895 22.4686 7.69606 22.3692 7.69606 22.2656C7.69606 22.162 7.64895 22.0627 7.56508 21.9894C7.48121 21.9162 7.36746 21.875 7.24885 21.875Z" fill="black"/>
<path d="M9.26781 9.82123C9.21745 9.79484 9.16163 9.77737 9.10354 9.76982C9.04545 9.76227 8.98622 9.76479 8.92925 9.77723C8.87227 9.78967 8.81866 9.81179 8.77147 9.84233C8.72429 9.87287 8.68445 9.91123 8.65423 9.95522L5.97096 13.8615C5.90994 13.9503 5.89181 14.0567 5.92058 14.1572C5.94935 14.2577 6.02265 14.3441 6.12435 14.3974C6.22606 14.4507 6.34784 14.4665 6.46291 14.4414C6.57798 14.4163 6.6769 14.3522 6.73793 14.2634L9.4212 10.3572C9.45141 10.3132 9.47142 10.2644 9.48006 10.2137C9.48871 10.1629 9.48582 10.1112 9.47158 10.0615C9.45734 10.0117 9.43201 9.96486 9.39704 9.92364C9.36208 9.88242 9.31817 9.84762 9.26781 9.82123Z" fill="black"/>
<path d="M10.7285 9.91206C10.6918 9.87201 10.6464 9.83866 10.5949 9.81392C10.5435 9.78918 10.4869 9.77354 10.4285 9.76788C10.3106 9.75646 10.1924 9.78643 10.0997 9.85118C10.0071 9.91593 9.94774 10.0102 9.93467 10.1132C9.9216 10.2161 9.9559 10.3194 10.03 10.4003L11.5953 12.1093L10.03 13.8183C9.9559 13.8992 9.9216 14.0025 9.93467 14.1055C9.94774 14.2085 10.0071 14.3027 10.0997 14.3675C10.1924 14.4322 10.3106 14.4622 10.4285 14.4508C10.5464 14.4394 10.6543 14.3875 10.7285 14.3066L12.5173 12.3535C12.5808 12.2842 12.6154 12.1981 12.6154 12.1093C12.6154 12.0206 12.5808 11.9345 12.5173 11.8652L10.7285 9.91206Z" fill="black"/>
<path d="M4.66356 14.3066C4.73769 14.3875 4.84558 14.4393 4.96349 14.4508C5.08139 14.4622 5.19967 14.4322 5.29228 14.3675C5.3849 14.3027 5.44428 14.2085 5.45735 14.1055C5.47042 14.0025 5.43612 13.8992 5.36199 13.8183L3.79675 12.1093L5.36199 10.4003C5.3987 10.3603 5.42601 10.3143 5.44237 10.265C5.45873 10.2158 5.46382 10.1641 5.45735 10.1131C5.45088 10.0622 5.43297 10.0128 5.40465 9.96782C5.37633 9.92287 5.33814 9.88324 5.29228 9.85118C5.24642 9.81911 5.19378 9.79526 5.13737 9.78097C5.08095 9.76667 5.02187 9.76223 4.96349 9.76788C4.9051 9.77354 4.84857 9.78918 4.79711 9.81392C4.74565 9.83866 4.70027 9.87201 4.66356 9.91206L2.87472 11.8652C2.81121 11.9345 2.77661 12.0206 2.77661 12.1093C2.77661 12.1981 2.81121 12.2842 2.87472 12.3535L4.66356 14.3066Z" fill="black"/>
</svg>
