<svg xmlns="http://www.w3.org/2000/svg" version="1.1" xmlns:xlink="http://www.w3.org/1999/xlink" xmlns:svgjs="http://svgjs.dev/svgjs" width="100%" height="100%" viewBox="0 0 1000 600"><rect width="1000" height="600" x="0" y="0" fill="#f80844"/><g><rect width="333.3333333333333" height="333.3333333333333" rx="13.333333333333334" ry="13.333333333333334" y="262.2568746424715" fill="666" transform="matrix(0.5207582864475707,0,0,0.5207582864475707,0,76.63454181166122)" x="240.03469848632812"/><path d="M444.3581293593469 423.832413910828L444.3581293593469 423.832413910828Q442.77628187170376 429.1931192856187 439.61258689641744 437.58569901172547Q436.4488919211311 445.9782787378322 432.49427320202324 455.6011842876614Q428.53965448291535 465.2680300454807 423.9698728519462 475.06669642727024Q419.35615101298697 484.86536280905983 414.6106085500576 492.7746002472756L414.6106085500576 492.7746002472756Q413.6878641822657 494.35644773491873 412.4135981505532 495.6307137666313Q411.1393321188406 496.90497979834385 410.5241692069794 498.1792458300564L410.5241692069794 498.1792458300564Q408.94232171933623 500.68383768549137 407.79987631159395 502.1338645491643Q406.70137111184175 503.5399512048471 405.4271050801292 503.84753266077774L405.4271050801292 503.84753266077774Q403.84525759248606 504.1990543246984 402.6149317687636 502.92478829298585Q401.34066573705104 501.65052226127335 399.4512367934773 500.06867477363016L399.4512367934773 500.06867477363016Q396.5951232741216 497.5201427102051 394.3541726666271 494.22462711094846Q392.1571622671227 490.88517130370184 390.26773332354895 487.7214763284155L390.26773332354895 487.7214763284155Q388.9934672918364 485.8320473848417 386.796456892332 484.0744390652382Q384.5555062848375 482.3607709536248 383.9403433729763 480.1198203461303L383.9403433729763 480.1198203461303Q373.79015532726606 453.887516176048 366.23243955297096 423.65665307886763Q358.6307835706858 393.4697301896774 352.9185565319744 364.64495374817983L352.9185565319744 364.64495374817983Q353.57765965182574 363.0631062605367 353.57765965182574 361.48125877289357Q353.57765965182574 359.8994112852504 354.8079854755482 360.25093294917104L354.8079854755482 360.25093294917104Q357.35651753897326 360.8660958610323 360.5202125142596 361.48125877289357Q363.6839074895459 362.14036189274486 363.6839074895459 364.64495374817983L363.6839074895459 364.64495374817983Q368.42944995247535 374.7951417938901 373.17499241540486 389.3393506386091Q377.9205348783343 403.88355948332816 382.4903165093034 419.8777951917201Q387.10403834826263 435.8280906921219 391.36623852330115 451.3389841126229Q395.62843869833966 466.84987753312384 399.4512367934773 478.5379728584872L399.4512367934773 478.5379728584872Q405.7786267440499 465.5756115014113 413.0287610624144 449.75713662497975Q420.32283558876895 433.93866174854816 428.2320730269847 417.329263128295Q436.1413104652005 400.71986450804184 444.18236852738653 384.4180473437193Q452.2673667975627 368.16017038738687 460.4841856917091 353.92354299859846L460.4841856917091 353.92354299859846Q460.4841856917091 358.6690854615279 459.5614413239173 363.4146279244574Q458.59475674813535 368.16017038738687 457.01290926049217 373.21329430624695L457.01290926049217 373.21329430624695Q456.04622468471024 376.0694078256027 454.94771948495804 378.88158113696824Q453.84921428520585 381.737694656324 452.8825297094239 384.90138963161024L452.8825297094239 384.90138963161024Q449.7188347341376 394.0848931015386 448.79609036634577 403.5759780273975Q447.82940579056384 413.0670629532565 444.3581293593469 423.832413910828Z " fill="#f4efea" transform="matrix(0.5207582864475707,0,0,0.5207582864475707,0,76.63454181166122)"/><path d="M765.9391261763051 398.0350774955763L765.9391261763051 398.0350774955763Q766.9031601631482 399.23180934131244 765.4737304585188 400.6612390459417L765.4737304585188 400.6612390459417L763.5456624848327 402.090668750571Q762.3489306390967 402.090668750571 761.9832625751217 402.6890346734391Q761.6175945111468 403.2874005963072 760.4208626654106 403.78603886536393L760.4208626654106 403.78603886536393Q758.7587351018882 404.48413244204335 757.9276713201269 405.08249836491143Q757.0966075383658 405.6808642877795 753.7391098600505 406.1795025568362L753.7391098600505 406.1795025568362Q746.0600805165768 404.98277071110004 736.7521661608512 405.08249836491143Q727.4110092538551 405.2154685699932 721.1946521662812 405.6808642877795L721.1946521662812 405.6808642877795Q722.6240818709105 416.45145089940485 722.8567797298036 428.4187693567664Q723.0894775886968 440.3860878141279 722.7238095247219 452.71907433546437Q722.3913840120174 465.05206085680084 721.7930180891492 477.01937931416234Q721.1946521662812 488.9866977715239 721.1946521662812 499.7572843831493L721.1946521662812 499.7572843831493L721.1946521662812 503.812875638144Q719.9979203205451 499.7572843831493 719.2665841925951 494.9703570002046L719.2665841925951 494.9703570002046Q718.8011884748089 493.2749868854118 718.5352480646453 491.9785273858643Q718.3025502057521 490.6488253350463 717.8371544879659 488.9866977715239L717.8371544879659 488.9866977715239Q714.4796568096506 469.60629038085233 714.4796568096506 448.06511715760155Q714.4796568096506 426.5239439343508 717.105818360016 406.1795025568362L717.105818360016 406.1795025568362Q703.476372339132 408.0743279792518 690.7777177538206 410.23509381183095Q678.1123057197797 412.3958596444101 665.6463489933615 416.45145089940485L665.6463489933615 416.45145089940485Q664.2169192887321 416.9500891684616 662.8872172379142 417.1827870273547Q661.5907577383666 417.4154848862479 660.1613280337374 417.88088060403413L660.1613280337374 417.88088060403413Q658.9645961880012 416.684148758298 658.0005622011582 416.21875304051173Q657.0365282143152 415.75335732272544 656.8038303554221 413.8252893490394L656.8038303554221 413.8252893490394Q656.3051920863654 411.19912779867394 658.2332600600514 409.63672788896287Q660.1613280337374 408.0743279792518 662.056153456153 406.1795025568362L662.056153456153 406.1795025568362Q662.7874895841028 405.91356214667263 663.0201874429961 404.98277071110004Q663.2528853018891 404.01873672425705 663.618553365864 403.05470273741406Q663.984221429839 402.090668750571 664.2169192887321 401.2596049688098Q664.4496171476253 400.4285411870486 665.1809532755751 400.1958433281555L665.1809532755751 400.1958433281555Q676.9155738740435 396.1070095218903 689.8136837669776 393.71354583041796Q702.7450362111822 391.3200821389457 715.8093588604685 390.8546864211594Q728.8404389584844 390.3560481521027 741.6388211976071 392.05141826689555Q754.4372034367299 393.71354583041796 765.9391261763051 398.0350774955763ZM799.2149199980242 441.8155175187572L799.2149199980242 441.8155175187572Q804.6999409576483 433.7043350087677 812.378970301122 428.7844374207413Q820.0247570933251 423.8645398327149 830.0972501282711 424.5958759606648L830.0972501282711 424.5958759606648Q831.5266798329004 424.8285738195579 833.1888073964228 425.65963760131916Q834.8841775112156 426.5239439343508 836.313607215845 427.22203751103024L836.313607215845 427.22203751103024Q839.9038027530535 429.1501054847163 842.9953600212051 432.84002867573605Q846.1201598406274 436.5631944180263 848.6465937371814 441.2171515958891Q851.1397850824651 445.9043513250224 852.8351551972579 450.9239765668602Q854.4972827607804 455.9436018086979 855.2286188887302 460.2651334738562L855.2286188887302 460.2651334738562Q855.6940146065166 462.8912950242217 855.9267124654097 466.9468862792164Q856.1594103243028 471.0357200854816 856.1594103243028 474.3932177637969L856.1594103243028 474.3932177637969Q855.6940146065166 474.3932177637969 855.6940146065166 474.6259156226901Q855.6940146065166 474.8586134815832 855.2286188887302 474.6259156226901L855.2286188887302 474.6259156226901Q853.3005509150443 473.66188163584707 852.1038190693081 471.9997540723246L852.1038190693081 471.9997540723246Q851.6384233515217 471.50111580326785 850.6743893646789 470.9027498803998Q849.7103553778358 470.30438395753174 849.4776575189427 469.3403499706887L849.4776575189427 469.3403499706887Q848.9790192498859 466.9468862792164 848.3806533270179 463.02426522930347Q847.7822874041498 459.06840162812006 846.3528576995205 454.5141721040686Q844.9234279948912 449.9599425800171 842.762662162312 445.5386832610475Q840.6018963297329 441.1174239420778 837.5103390615811 437.75992626376245L837.5103390615811 437.75992626376245Q836.313607215845 436.5631944180263 835.4825434340837 435.96482849515826Q834.6182371010522 435.3664625722902 833.421505255316 434.6351264443403L833.421505255316 434.6351264443403Q832.2247734095798 433.7043350087677 829.8313097181075 433.3386669447928Q827.4378460266352 432.97299888081784 825.7757184631128 433.43839459860413L825.7757184631128 433.43839459860413Q821.720127208118 434.6351264443403 817.1658976840665 437.9926241226556Q812.611668160015 441.35012180097095 809.2541704816997 446.27001938899735Q805.8966728033844 451.1566744257533 804.4672430987551 457.6389719234908Q803.0378133941258 464.08802686995784 805.6639749444913 471.50111580326785L805.6639749444913 471.50111580326785Q806.3953110724411 473.66188163584707 806.6280089313343 474.991583686665Q806.8607067902275 476.2880431862125 806.760979136416 477.4847750319487Q806.6280089313343 478.6815068776848 805.8966728033844 480.1109365823141Q805.198579226705 481.57360883821383 804.0018473809688 483.96707252968616L804.0018473809688 483.96707252968616Q802.0737794072828 486.82593193894473 799.5805880619992 488.0226637846809Q797.0541541654451 489.21939563041707 795.1260861917591 490.6488253350463L795.1260861917591 490.6488253350463Q788.2116355275058 470.80302222658844 784.4884697852154 450.9239765668602Q780.7653040429252 431.04493090713186 779.9342402611641 413.3598936312531Q779.1031764794028 395.641613804104 781.0312444530888 380.9151635912952Q782.9260698755044 366.18871337848645 787.0149036817696 356.3821607537041L787.0149036817696 356.3821607537041Q787.712997258449 353.5233013444455 790.1064609499214 353.9886970622318L790.1064609499214 353.9886970622318Q791.3031927956574 354.22139492112495 792.0345289236074 354.95273104907477Q792.7326225002868 355.6508246257542 793.9293543460229 356.84755647149035L793.9293543460229 356.84755647149035Q794.8933883328659 358.0442883172265 795.6247244608159 358.9085946502582Q796.3228180374952 359.73965843201944 796.5887584476588 361.1690881366487L796.5887584476588 361.1690881366487Q796.8214563065519 362.36581998238483 797.7854902933949 362.36581998238483Q798.7162817289675 362.36581998238483 798.4835838700744 363.562551828121L798.4835838700744 363.562551828121Q796.3228180374952 376.7266021312187 795.6247244608159 387.96258446063035Q794.8933883328659 399.23180934131244 795.2590563968408 408.80566410720166Q795.6247244608159 418.3795188730909 796.8214563065519 426.5239439343508Q798.0181881522881 434.6351264443403 799.2149199980242 441.8155175187572ZM919.5861981483189 414.2906850668257L919.5861981483189 414.2906850668257Q921.2815682631118 415.9860551816186 922.710997967741 418.013850809116Q924.1404276723705 420.04164643661335 925.1044616592134 422.2024122691925L925.1044616592134 422.2024122691925Q927.0325296328994 426.75664179324394 927.1322572867108 431.17790111221365Q927.2652274917925 435.5991604311833 923.6750319545841 441.8155175187572L923.6750319545841 441.8155175187572Q919.5861981483189 448.53051287538784 913.2701134069337 453.08474239943934Q906.920786114278 457.6389719234908 899.507697180968 458.83570376922694L899.507697180968 458.83570376922694Q894.2221315289665 459.76649520479947 888.9698084282356 458.70273356414515Q883.6842427762343 457.6389719234908 878.8973153932897 454.0487763862823L878.8973153932897 454.0487763862823Q877.4678856886604 455.2455082320185 876.6368219068992 457.506001718409Q875.805758125138 459.76649520479947 876.0384559840312 461.69456317848557L876.0384559840312 461.69456317848557Q876.5038517018174 465.05206085680084 878.5648898805853 469.00792445798425Q880.5926855080826 472.9305455078972 882.9861491995549 474.3932177637969L882.9861491995549 474.3932177637969Q887.0417404545497 476.05534532731934 894.3551017340484 474.6259156226901Q901.6352204622766 473.1964859180608 909.9126157286183 470.20465630372036Q918.1567684436897 467.21282668938 926.1682232998677 463.4896609470897Q934.2129207073164 459.76649520479947 939.9306395258335 457.1403336544341L939.9306395258335 457.1403336544341Q939.9306395258335 458.56976335906336 939.3322736029654 459.06840162812006Q938.7339076800973 459.53379734590635 937.8031162445249 460.7305291916425L937.8031162445249 460.7305291916425Q936.6063843987887 461.9272610373786 935.1437121428888 463.62263115217155Q933.7142824382596 465.28475871569395 931.819457015844 466.4814905614301L931.819457015844 466.4814905614301Q929.4259933243717 467.9109202660594 928.2292614786355 470.20465630372036Q927.0325296328994 472.4651497901109 923.6750319545841 474.3932177637969L923.6750319545841 474.3932177637969Q919.1208024305326 476.7866814552692 914.4668452526698 479.2798728005529Q909.7796455235365 481.806306697107 905.2254159994851 483.8341023246043Q900.704429026704 485.86189795210174 896.0172292975708 486.9589021440265Q891.363272119708 488.0226637846809 886.8090425956565 487.5572680668946L886.8090425956565 487.5572680668946Q883.6842427762343 487.0586297978379 881.656447148737 485.86189795210174Q879.6286515212396 484.6651661063656 876.769792111981 482.27170241489324L876.769792111981 482.27170241489324Q875.3071198560813 481.0749705691571 873.4122944336657 479.87823872342096Q871.4842264599797 478.6815068776848 870.5201924731367 477.4847750319487L870.5201924731367 477.4847750319487Q866.4646012181419 471.50111580326785 865.0351715135126 464.68639279282587Q863.6057418088833 457.8716697823839 864.4368055906446 451.0569467719419Q865.2678693724058 444.2089812102295 867.8940309227712 437.62695605868066Q870.5201924731367 431.04493090713186 874.841724138295 425.55990994750783L874.841724138295 425.55990994750783Q877.2351878297673 422.4351101280856 880.692413161894 419.2105826548521Q884.1828810452911 415.9860551816186 888.3714425053676 413.4596212850645Q892.5600039654441 410.9664299397808 897.213961143307 409.5037576838811Q901.9011608724402 408.0743279792518 906.6880882553849 408.30702583814497L906.6880882553849 408.30702583814497Q908.5829136778004 408.57296624830855 910.1453135875115 409.40403003006975Q911.7077134972226 410.23509381183095 913.6025389196382 411.19912779867394L913.6025389196382 411.19912779867394Q914.7992707653742 411.66452351646024 916.5943685339786 412.4955872982215Q918.3894663025827 413.3598936312531 919.5861981483189 414.2906850668257ZM912.6717474840656 428.4187693567664L912.6717474840656 428.4187693567664Q912.1731092150088 426.25800352418725 910.0123433824298 424.5958759606648Q907.884820101121 422.9337483971423 905.2254159994851 421.83674420521754Q902.5992544491196 420.77298256456316 899.9730928987542 420.54028470567005Q897.3469313483888 420.27434429550647 896.1501995026526 420.77298256456316L896.1501995026526 420.77298256456316Q894.2221315289665 421.47107614124263 891.728940183683 423.2661739098468Q889.2025062871288 425.0612716784511 886.9420128007383 427.4547353699234Q884.6482767630773 429.8481990613957 882.62048113558 432.60733081684293Q880.5926855080826 435.3664625722902 879.6286515212396 437.75992626376245L879.6286515212396 437.75992626376245Q879.1632558034534 438.4912623917123 878.7975877394784 440.020419750153Q878.4319196755034 441.5828196598641 878.8973153932897 442.31415578781395L878.8973153932897 442.31415578781395Q881.7894173538187 445.9043513250224 887.5403787236064 445.9043513250224L887.5403787236064 445.9043513250224Q893.0253996832304 445.9043513250224 899.3747269758861 443.27818977465694Q905.7240542685419 440.618785673021 908.3502158189073 437.75992626376245L908.3502158189073 437.75992626376245Q908.5829136778004 437.2945305459762 909.4139774595616 436.09779870024005Q910.2782837925932 434.9010668545039 910.9763773692727 433.43839459860413Q911.7077134972226 432.00896489397485 912.3060794200907 430.57953518934556Q912.9044453429588 429.1501054847163 912.6717474840656 428.4187693567664ZM1028.4887961103086 393.94624368931113L1028.4887961103086 393.94624368931113Q1028.0234003925225 394.9102776761541 1028.4887961103086 395.4089159452108Q1028.9874343793654 395.8743116629971 1028.4887961103086 396.3397073807834L1028.4887961103086 396.3397073807834Q1027.7907025336294 396.83834564984016 1025.9956047650253 396.9380733036515Q1024.200506996421 397.0710435087333 1023.0037751506848 397.3037413676264L1023.0037751506848 397.3037413676264Q1021.308405035892 397.80237963668316 1019.6462774723694 397.66940943160137Q1017.9841499088469 397.5364392265196 1016.0560819351609 396.3397073807834L1016.0560819351609 396.3397073807834Q1013.1972225259024 394.9102776761541 1009.0086610658258 393.6138181766066Q1004.8200996057493 392.28411612578867 1000.0331722228046 392.28411612578867L1000.0331722228046 392.28411612578867Q993.7835725839603 392.28411612578867 986.869121919707 393.6138181766066Q979.9214287041833 394.9102776761541 973.5721014115276 397.2040137138151Q967.2227741188718 399.46450720020556 962.3361190821159 402.8220048785209Q957.4162214940894 406.1795025568362 955.2554556615104 410.23509381183095L955.2554556615104 410.23509381183095Q953.826025956881 413.3598936312531 954.0587238157742 416.8171189633798Q954.2914216746673 420.27434429550647 955.7540939305671 423.3991441149287Q957.1835236351964 426.5239439343508 959.2113192626938 429.0171352796345Q961.2391148901912 431.54356917618856 963.1671828638772 432.50760316303155L963.1671828638772 432.50760316303155Q969.1508420925578 435.5991604311833 976.4309608207861 436.5631944180263Q983.7443221002849 437.52722840486933 991.5230790975698 437.75992626376245Q999.3018360948548 437.9926241226556 1006.9476228870581 438.4912623917123Q1014.6266522305317 438.9566581094986 1021.0757071769988 440.8847260831846L1021.0757071769988 440.8847260831846Q1024.4332048553142 442.08145792892077 1027.4250344696543 442.77955150560024Q1030.4168640839948 443.5108876335501 1032.8103277754672 444.8073471330976Q1035.2037914669395 446.1370491839155 1037.2315870944367 448.39754267030605Q1039.2593827219343 450.691278707967 1040.722054977834 454.9795678218549L1040.722054977834 454.9795678218549Q1042.8495782591426 464.08802686995784 1039.7580209909909 472.697847649004L1039.7580209909909 472.697847649004Q1036.6332211715687 481.57360883821383 1029.452830097152 488.3883318486558Q1022.2724390227348 495.2030548590978 1013.1972225259024 499.2586461140925L1013.1972225259024 499.2586461140925Q1006.0168314514855 502.3834459335147 998.4707723130936 503.4472075741691Q990.9247131747018 504.5442117660939 983.8772923053667 503.1147820614646Q976.796628884761 501.65210980556486 970.9459398611622 497.5965185505701Q965.0620082862927 493.5409272955754 961.4718127490843 486.36053622115844L961.4718127490843 486.36053622115844Q959.3442894677755 481.806306697107 959.3442894677755 475.32400919936947L959.3442894677755 475.32400919936947Q959.078349057612 474.6259156226901 959.3442894677755 473.8945794947402L959.3442894677755 473.8945794947402Q959.8096851855618 472.2324519312178 962.4358467359273 472.2324519312178L962.4358467359273 472.2324519312178Q963.3998807227703 471.733813662161 964.9622806324813 472.83081785408586Q966.5246805421924 473.8945794947402 967.2227741188718 474.12727735363336L967.2227741188718 474.12727735363336Q969.1508420925578 474.3932177637969 970.9459398611622 476.6537112501874Q972.7410376297663 478.9142047365779 974.4031651932888 480.37687699247766L974.4031651932888 480.37687699247766Q980.3868244219695 486.59323408005156 987.9328835603613 487.88969357959905Q995.4789426987533 489.21939563041707 1002.5263635680884 487.88969357959905Q1009.607026988694 486.59323408005156 1015.5906862173747 483.7011321195226Q1021.5743454460554 480.84227271026396 1024.4332048553142 478.4488090187917L1024.4332048553142 478.4488090187917Q1026.0953324188365 477.01937931416234 1028.1563705976043 474.991583686665Q1030.1841662251018 472.9305455078972 1032.0789916475173 470.43735416261353Q1034.007059621203 467.9109202660594 1035.336761672021 465.05206085680084Q1036.6332211715687 462.1599588962718 1036.6332211715687 459.06840162812006L1036.6332211715687 459.06840162812006Q1035.9351275948893 456.176299667591 1032.8103277754672 454.6471423091504Q1029.685527956045 453.08474239943934 1024.8986005731003 452.1207084125963L1024.8986005731003 452.1207084125963Q1016.5214776529473 450.691278707967 1008.4102951429578 450.5583085028852Q1000.2658700816978 450.4585808490739 992.3541428793311 450.691278707967Q984.4756582282347 450.9239765668602 976.796628884761 450.9239765668602Q969.1508420925578 450.9239765668602 961.970451018141 449.2618490033377L961.970451018141 449.2618490033377Q959.8096851855618 448.763210734281 957.7818895580643 447.69944909362664Q955.7540939305671 446.6024449017018 953.826025956881 445.4057130559657L953.826025956881 445.4057130559657Q951.8979579831949 444.2089812102295 950.9671665476225 442.31415578781395Q950.0031325607795 440.3860878141279 948.8064007150433 438.22532198154875L948.8064007150433 438.22532198154875Q947.6096688693071 436.09779870024005 946.5126646773823 433.80406266257904Q945.448903036728 431.54356917618856 944.9835073189416 428.9174076258231L944.9835073189416 428.9174076258231Q943.7867754732056 421.2383782823495 945.0832349727531 413.0939532210895Q946.412937023571 404.98277071110004 951.1998644065155 398.0350774955763L951.1998644065155 398.0350774955763Q955.0227578026172 392.28411612578867 961.6047829541661 388.09555466571214Q968.1868081057149 383.9069932056356 976.4309608207861 381.64649971924507Q984.708356087128 379.3527636815841 994.0495129941239 379.4857338866659Q1003.3574273498497 379.5854615404773 1013.1972225259024 382.4775635010063L1013.1972225259024 382.4775635010063Q1014.3939543716385 382.9429592187926 1016.0560819351609 383.77402300055377Q1017.7182094986834 384.63832933358543 1018.9149413444196 385.1037250513717L1018.9149413444196 385.1037250513717Q1022.2724390227348 386.7658526148942 1024.8986005731003 389.1593163063665Q1027.5580046747364 391.5527799978388 1028.4887961103086 393.94624368931113ZM1130.2110029978817 433.43839459860413L1141.9456235963503 435.13376471339706Q1142.444261865407 435.5991604311833 1142.6769597243 435.5991604311833Q1142.9096575831932 435.5991604311833 1142.9096575831932 436.09779870024005L1142.9096575831932 436.09779870024005Q1142.6769597243 436.5631944180263 1141.8458959425388 437.16156034089437Q1140.981589609507 437.75992626376245 1138.8540663281983 437.9926241226556L1138.8540663281983 437.9926241226556Q1138.1227302002485 438.22532198154875 1136.9259983545123 438.82368790441683Q1135.7292665087762 439.4220538272849 1134.9979303808263 439.6879942374485L1134.9979303808263 439.6879942374485Q1128.5488754343592 441.1174239420778 1119.8060844502313 442.31415578781395Q1111.0632934661035 443.5108876335501 1101.7553791103778 444.4749216203931L1101.7553791103778 444.4749216203931Q1101.256740841321 452.85204454054616 1101.3897110464027 460.0324356149631Q1101.4894387002141 467.21282668938 1101.9880769692709 472.4651497901109L1101.9880769692709 472.4651497901109Q1102.453472687057 476.52074104510564 1105.8109703653727 476.42101339129425Q1109.1684680436879 476.2880431862125 1112.7586635808962 475.09131134047635L1112.7586635808962 475.09131134047635Q1113.7226975677393 474.8586134815832 1117.911259027816 472.83081785408586Q1122.0998204878924 470.80302222658844 1127.717811652598 468.0438904711412Q1133.3358028173038 465.28475871569395 1139.552159904878 462.0602312424605Q1145.7685169924516 458.83570376922694 1150.82138478556 456.176299667591L1150.82138478556 456.176299667591Q1150.82138478556 459.53379734590635 1147.2311892483513 462.6585971653285L1147.2311892483513 462.6585971653285Q1145.3031212746655 464.32072472885096 1143.0426277882748 465.75015443348025Q1140.748891750614 467.21282668938 1138.3554280591416 468.87495425290246L1138.3554280591416 468.87495425290246Q1135.7292665087762 470.53708181642486 1134.7652325219333 472.4651497901109Q1133.8011985350904 474.3932177637969 1130.4769434080454 476.52074104510564L1130.4769434080454 476.52074104510564Q1124.227343769201 480.60957485137084 1117.046952694784 483.96707252968616Q1109.866561620367 487.29132765673097 1104.1488428018502 488.7539999126308L1104.1488428018502 488.7539999126308Q1102.220774828164 489.21939563041707 1100.1929792006665 489.21939563041707Q1098.165183573169 489.21939563041707 1096.2371155994833 489.9507317583669L1096.2371155994833 489.9507317583669Q1093.3782561902246 491.14746360410305 1091.8158562805133 489.4520934893102Q1090.2534563708025 487.7899659257877 1089.7880606530161 484.6651661063656L1089.7880606530161 484.6651661063656Q1088.8240266661733 475.8226474684262 1088.4583586021981 465.75015443348025Q1088.0926905382235 455.71090394980473 1088.3253883971165 445.4057130559657L1088.3253883971165 445.4057130559657Q1081.1449973226995 445.9043513250224 1075.0616104402075 445.7713811199406Q1068.9449810064448 445.67165346612927 1065.1220876103432 444.9403173381794L1065.1220876103432 444.9403173381794Q1061.5318920731347 444.4749216203931 1058.5400624587942 443.37791742846827Q1055.548232844454 442.31415578781395 1053.1547691529818 439.9206920963416L1053.1547691529818 439.9206920963416Q1050.9940033204025 439.9206920963416 1051.8250671021638 437.8928964688443Q1052.6893734351954 435.83185829007647 1053.1547691529818 434.4024285854471L1053.1547691529818 434.4024285854471Q1058.1743943948195 434.169730726554 1067.8812193657905 433.80406266257904Q1077.554801785491 433.43839459860413 1088.8240266661733 432.97299888081784L1088.8240266661733 432.97299888081784Q1089.7880606530161 413.0939532210895 1092.1815243444885 396.1070095218903Q1094.5749880359608 379.120065822691 1097.8992431630054 370.7429429025379L1097.8992431630054 370.7429429025379Q1097.8992431630054 368.58217706995873 1099.69434093161 367.75111328819753Q1101.4894387002141 366.9200495064363 1103.4175066739003 365.72331766070016L1103.4175066739003 365.72331766070016Q1104.3815406607432 365.2246793916434 1105.4453023013975 364.39361560988226Q1106.5423064933225 363.562551828121 1108.437131915738 363.562551828121L1108.437131915738 363.562551828121Q1110.5978977483169 364.75928367385717 1111.5619317351602 365.59034745561837Q1112.525965722003 366.4214112373796 1112.525965722003 367.61814308311574Q1112.525965722003 368.8148749288519 1111.7946295940533 370.5102450436448Q1111.0632934661035 372.17237260716723 1110.1325020305308 374.7985341575327L1110.1325020305308 374.7985341575327Q1109.633863761474 375.52987028548256 1108.6698297746311 380.78219338621346Q1107.7390383390584 386.0677590382148 1106.6420341471337 394.0792138943929Q1105.5782725064792 402.090668750571 1104.3815406607432 412.2628894393283Q1103.1848088150068 422.4351101280856 1102.453472687057 432.7403010219247L1102.453472687057 432.7403010219247Q1110.3651998894238 432.7403010219247 1117.5455909638408 432.84002867573605Q1124.7259820382578 432.97299888081784 1130.2110029978817 433.43839459860413L1130.2110029978817 433.43839459860413ZM1209.1953048164678 414.2906850668257L1209.1953048164678 414.2906850668257Q1210.8906749312607 415.9860551816186 1212.32010463589 418.013850809116Q1213.7495343405194 420.04164643661335 1214.7135683273623 422.2024122691925L1214.7135683273623 422.2024122691925Q1216.6416363010485 426.75664179324394 1216.7413639548595 431.17790111221365Q1216.8743341599416 435.5991604311833 1213.284138622733 441.8155175187572L1213.284138622733 441.8155175187572Q1209.1953048164678 448.53051287538784 1202.8792200750827 453.08474239943934Q1196.529892782427 457.6389719234908 1189.1168038491169 458.83570376922694L1189.1168038491169 458.83570376922694Q1183.8312381971155 459.76649520479947 1178.5789150963847 458.70273356414515Q1173.2933494443832 457.6389719234908 1168.5064220614386 454.0487763862823L1168.5064220614386 454.0487763862823Q1167.0769923568091 455.2455082320185 1166.245928575048 457.506001718409Q1165.414864793287 459.76649520479947 1165.64756265218 461.69456317848557L1165.64756265218 461.69456317848557Q1166.1129583699662 465.05206085680084 1168.173996548734 469.00792445798425Q1170.2017921762315 472.9305455078972 1172.5952558677036 474.3932177637969L1172.5952558677036 474.3932177637969Q1176.6508471226985 476.05534532731934 1183.9642084021973 474.6259156226901Q1191.2443271304255 473.1964859180608 1199.5217223967672 470.20465630372036Q1207.7658751118383 467.21282668938 1215.7773299680166 463.4896609470897Q1223.8220273754653 459.76649520479947 1229.5397461939824 457.1403336544341L1229.5397461939824 457.1403336544341Q1229.5397461939824 458.56976335906336 1228.9413802711142 459.06840162812006Q1228.3430143482462 459.53379734590635 1227.4122229126738 460.7305291916425L1227.4122229126738 460.7305291916425Q1226.2154910669376 461.9272610373786 1224.7528188110377 463.62263115217155Q1223.3233891064085 465.28475871569395 1221.428563683993 466.4814905614301L1221.428563683993 466.4814905614301Q1219.0350999925204 467.9109202660594 1217.8383681467844 470.20465630372036Q1216.6416363010485 472.4651497901109 1213.284138622733 474.3932177637969L1213.284138622733 474.3932177637969Q1208.7299090986814 476.7866814552692 1204.0759519208186 479.2798728005529Q1199.3887521916854 481.806306697107 1194.834522667634 483.8341023246043Q1190.313535694853 485.86189795210174 1185.6263359657196 486.9589021440265Q1180.972378787857 488.0226637846809 1176.4181492638054 487.5572680668946L1176.4181492638054 487.5572680668946Q1173.2933494443832 487.0586297978379 1171.265553816886 485.86189795210174Q1169.2377581893884 484.6651661063656 1166.37889878013 482.27170241489324L1166.37889878013 482.27170241489324Q1164.9162265242303 481.0749705691571 1163.0214011018147 479.87823872342096Q1161.0933331281285 478.6815068776848 1160.1292991412856 477.4847750319487L1160.1292991412856 477.4847750319487Q1156.0737078862908 471.50111580326785 1154.6442781816618 464.68639279282587Q1153.2148484770323 457.8716697823839 1154.0459122587936 451.0569467719419Q1154.8769760405548 444.2089812102295 1157.5031375909202 437.62695605868066Q1160.1292991412856 431.04493090713186 1164.450830806444 425.55990994750783L1164.450830806444 425.55990994750783Q1166.844294497916 422.4351101280856 1170.3015198300427 419.2105826548521Q1173.79198771344 415.9860551816186 1177.9805491735165 413.4596212850645Q1182.169110633593 410.9664299397808 1186.823067811456 409.5037576838811Q1191.5102675405892 408.0743279792518 1196.2971949235339 408.30702583814497L1196.2971949235339 408.30702583814497Q1198.1920203459495 408.57296624830855 1199.7544202556603 409.40403003006975Q1201.3168201653716 410.23509381183095 1203.2116455877872 411.19912779867394L1203.2116455877872 411.19912779867394Q1204.4083774335231 411.66452351646024 1206.2034752021275 412.4955872982215Q1207.9985729707316 413.3598936312531 1209.1953048164678 414.2906850668257ZM1202.2808541522145 428.4187693567664L1202.2808541522145 428.4187693567664Q1201.7822158831577 426.25800352418725 1199.6214500505787 424.5958759606648Q1197.4939267692698 422.9337483971423 1194.834522667634 421.83674420521754Q1192.2083611172684 420.77298256456316 1189.582199566903 420.54028470567005Q1186.9560380165376 420.27434429550647 1185.7593061708014 420.77298256456316L1185.7593061708014 420.77298256456316Q1183.8312381971155 421.47107614124263 1181.338046851832 423.2661739098468Q1178.8116129552777 425.0612716784511 1176.5511194688872 427.4547353699234Q1174.2573834312261 429.8481990613957 1172.229587803729 432.60733081684293Q1170.2017921762315 435.3664625722902 1169.2377581893884 437.75992626376245L1169.2377581893884 437.75992626376245Q1168.7723624716023 438.4912623917123 1168.4066944076271 440.020419750153Q1168.0410263436524 441.5828196598641 1168.5064220614386 442.31415578781395L1168.5064220614386 442.31415578781395Q1171.3985240219677 445.9043513250224 1177.1494853917552 445.9043513250224L1177.1494853917552 445.9043513250224Q1182.6345063513793 445.9043513250224 1188.9838336440348 443.27818977465694Q1195.3331609366905 440.618785673021 1197.9593224870562 437.75992626376245L1197.9593224870562 437.75992626376245Q1198.1920203459495 437.2945305459762 1199.0230841277105 436.09779870024005Q1199.8873904607422 434.9010668545039 1200.5854840374218 433.43839459860413Q1201.3168201653716 432.00896489397485 1201.9151860882396 430.57953518934556Q1202.5135520111075 429.1501054847163 1202.2808541522145 428.4187693567664ZM1252.543591673133 374.1004405808532L1252.543591673133 374.1004405808532Q1255.4024510823915 387.03179302505777 1257.064578645914 399.92990291799185Q1258.7599487607067 412.8612553621964 1260.1893784653362 425.79260780640095Q1261.6188081699654 438.7239602506055 1263.1812080796763 451.65531269481Q1264.7436079893873 464.55342258774414 1267.3697695397532 477.4847750319487L1267.3697695397532 477.4847750319487Q1266.9043738219666 480.60957485137084 1266.638433411803 482.5044002737864Q1266.4057355529098 484.4324682474724 1265.441701566067 484.8978639652587L1265.441701566067 484.8978639652587Q1264.2449697203306 485.62920009320857 1263.1812080796763 486.4602638749698Q1262.1174464390222 487.29132765673097 1260.920714593286 487.7899659257877L1260.920714593286 487.7899659257877Q1260.4220763242292 488.0226637846809 1259.956680606443 488.621029707549Q1259.4580423373864 489.21939563041707 1258.8596764145182 489.4520934893102Q1258.26131049165 489.6847913482033 1257.7959147738638 489.4520934893102Q1257.3305190560775 489.21939563041707 1256.5991829281274 488.0226637846809L1256.5991829281274 488.0226637846809Q1252.0449534040763 474.3932177637969 1248.3550302130564 460.4978313327494Q1244.6318644707662 446.6024449017018 1242.3713709843755 432.50760316303155Q1240.0776349467146 418.3795188730909 1239.4792690238464 403.88576651917526Q1238.8809031009787 389.4252567165301 1240.3103328056077 374.1004405808532L1240.3103328056077 374.1004405808532Q1240.3103328056077 370.5102450436448 1242.471098638187 369.5462110568018L1242.471098638187 369.5462110568018Q1243.4351326250298 369.0808153390155 1244.997532534741 370.27754718475165Q1246.559932444452 371.4742790304878 1247.7566642901884 371.93967474827406L1247.7566642901884 371.93967474827406Q1249.418791853711 372.671010876224 1250.3828258405538 372.7707385300353Q1251.3468598273967 372.9037087351171 1252.543591673133 374.1004405808532ZM1294.4292062738982 414.78932333588244L1294.4292062738982 414.78932333588244Q1295.8586359785277 421.00568042345634 1295.6259381196342 427.720675780087Q1295.359997709471 434.4024285854471 1295.0275721967664 441.2171515958891Q1294.6619041327913 448.06511715760155 1295.0275721967664 454.87984016804353Q1295.359997709471 461.69456317848557 1298.484797528893 467.6782224071663L1298.484797528893 467.6782224071663Q1304.0030610397876 454.0487763862823 1313.5769158056764 442.91252171068203Q1323.1507705715658 431.77626703508173 1333.921357183191 422.9337483971423L1333.921357183191 422.9337483971423Q1335.3507868878205 421.7370165514062 1336.9131867975316 421.37134848743125Q1338.442344155972 421.00568042345634 1339.905016411872 420.54028470567005L1339.905016411872 420.54028470567005Q1341.101748257608 420.04164643661335 1342.1655098982624 419.6759783726384Q1343.2292715389167 419.3435528599339 1345.157339512603 420.27434429550647L1345.157339512603 420.27434429550647Q1349.9442668955476 422.9337483971423 1350.6756030234974 430.3468373304524Q1351.3736966001766 437.75992626376245 1351.3736966001766 451.3893722846464L1351.3736966001766 451.3893722846464Q1354.9638921373853 447.79917674743797 1358.6870578796756 443.37791742846827Q1362.3769810706954 438.9566581094986 1366.2331170180673 434.9010668545039Q1370.0560104141691 430.8122330482387 1374.1116016691635 427.720675780087Q1378.200435475429 424.5958759606648 1382.72142244821 423.1664462560355L1382.72142244821 423.1664462560355Q1384.1840947041096 422.66780798697874 1385.7132520625505 423.0334760509537Q1387.2756519722611 423.3991441149287 1388.7050816768906 423.3991441149287L1388.7050816768906 423.3991441149287Q1389.6691156637335 423.3991441149287 1390.4004517916837 423.0334760509537Q1391.098545368363 422.66780798697874 1392.0625793552058 422.9337483971423L1392.0625793552058 422.9337483971423Q1393.4920090598353 423.1664462560355 1394.5890132517602 424.36317810177167Q1395.6527748924145 425.55990994750783 1396.1514131614713 426.98933965213706L1396.1514131614713 426.98933965213706Q1397.0822045970435 430.57953518934556 1398.7775747118367 436.92886248200125Q1400.4397022753592 443.27818977465694 1401.7694043261768 449.8602149262058Q1403.0658638257246 456.44224007775466 1403.7971999536744 462.1599588962718Q1404.5285360816242 467.9109202660594 1403.7971999536744 470.30438395753174L1403.7971999536744 470.30438395753174Q1403.3318042358883 472.4651497901109 1402.73343831302 473.1964859180608Q1402.135072390152 473.8945794947402 1400.2070044164657 475.8226474684262L1400.2070044164657 475.8226474684262Q1399.7416086986796 475.8226474684262 1399.1432427758114 476.52074104510564Q1398.5448768529432 477.2520771730555 1397.8135407249933 477.9834133010054L1397.8135407249933 477.9834133010054Q1396.8495067381505 478.9142047365779 1396.1514131614713 479.87823872342096L1396.1514131614713 479.87823872342096Q1393.0266133420491 475.32400919936947 1391.3644857785266 470.0716860986386Q1389.6691156637335 464.8193629979077 1388.4723838179975 459.06840162812006Q1387.2756519722611 453.31744025833245 1386.3116179854183 447.3337810296517Q1385.3808265498456 441.35012180097095 1383.918154293946 435.13376471339706L1383.918154293946 435.13376471339706Q1377.0037036296926 438.7239602506055 1373.0478400285092 443.37791742846827Q1369.0919764273258 448.06511715760155 1366.6985127358535 453.18447005325066Q1364.3050490443811 458.33706550017024 1362.3769810706954 463.62263115217155Q1360.4821556482798 468.87495425290246 1357.5900536877507 473.66188163584707L1357.5900536877507 473.66188163584707Q1354.9638921373853 477.71747289084175 1352.33773058702 480.1109365823141Q1349.711569036654 482.5044002737864 1348.0161989218614 482.27170241489324L1348.0161989218614 482.27170241489324Q1346.5867692172324 482.0390045560001 1345.8886756405527 479.64554086452785Q1345.157339512603 477.2520771730555 1343.9606076668665 472.4651497901109L1343.9606076668665 472.4651497901109Q1341.5671439753946 462.6585971653285 1339.539348347897 451.3893722846464Q1337.5115527203998 440.1533899552348 1335.1180890289274 431.04493090713186L1335.1180890289274 431.04493090713186Q1330.5638595048758 432.50760316303155 1326.1426001859063 436.1975263540514Q1321.6880983156661 439.9206920963416 1317.8652049195643 444.8073471330976Q1314.042311523463 449.727244721124 1311.0504819091225 455.71090394980473Q1308.058652294782 461.69456317848557 1306.629222590153 467.6782224071663L1306.629222590153 467.6782224071663Q1309.7207798583045 473.8945794947402 1306.861920449046 477.9834133010054L1306.861920449046 477.9834133010054Q1305.6651886033096 479.87823872342096 1303.5044227707308 481.2079407742389Q1301.3436569381515 482.5044002737864 1298.484797528893 483.96707252968616L1298.484797528893 483.96707252968616Q1296.8226699653706 485.62920009320857 1294.8946019916843 485.16380437542233L1294.8946019916843 485.16380437542233Q1292.9665340179986 484.6651661063656 1291.7698021722622 482.8700683377613Q1290.5730703265262 481.0749705691571 1290.3403724676332 479.87823872342096L1290.3403724676332 479.87823872342096Q1288.9109427630037 472.2324519312178 1287.4815130583743 463.955056664876Q1286.0520833537453 455.71090394980473 1285.6864152897701 447.3337810296517Q1285.3207472257955 438.9566581094986 1286.2847812126383 430.71250539442735Q1287.2488151994812 422.4351101280856 1290.3403724676332 414.78932333588244L1290.3403724676332 414.78932333588244Q1290.83901073669 413.3598936312531 1291.304406454476 413.3598936312531L1291.304406454476 413.3598936312531Q1291.7698021722622 413.3598936312531 1292.268440441319 413.6923191439576Q1292.7338361591055 414.05798720793257 1293.2324744281618 414.2906850668257L1293.2324744281618 414.2906850668257Q1293.6978701459484 414.55662547698927 1293.83084035103 414.55662547698927Q1293.9305680048415 414.55662547698927 1294.4292062738982 414.78932333588244ZM1478.459970107102 417.4154848862479L1478.459970107102 417.4154848862479Q1481.5847699265241 425.0612716784511 1484.3439016819716 433.9370328676609Q1487.1030334374186 442.77955150560024 1488.166795078073 451.52234248972826Q1489.2305567187273 460.2651334738562 1488.166795078073 468.40955853511616Q1487.1030334374186 476.52074104510564 1482.548803913367 482.5044002737864L1482.548803913367 482.5044002737864Q1480.6207359396813 484.8978639652587 1477.9945743893159 484.4324682474724L1477.9945743893159 484.4324682474724Q1477.030540402473 484.1997703885793 1476.3324468257933 483.23573640173623Q1475.6011106978435 482.27170241489324 1474.4043788521076 481.57360883821383L1474.4043788521076 481.57360883821383Q1473.4403448652643 480.84227271026396 1472.37658322461 480.37687699247766Q1471.279579032685 479.87823872342096 1470.3487875971127 478.4488090187917L1470.3487875971127 478.4488090187917Q1466.758592059904 479.64554086452785 1463.2681241765072 481.90603435091833Q1459.8108988443805 484.1997703885793 1456.2207033071718 486.59323408005156Q1452.6305077699635 488.9866977715239 1448.8076143738617 491.24719125791444Q1444.9514784264898 493.5409272955754 1440.895887171495 494.4717187311479L1440.895887171495 494.4717187311479Q1436.5743555063368 495.6684505768841 1434.5465598788396 494.13929321844347Q1432.518764251342 492.57689330873234 1430.1253005598696 490.6488253350463L1430.1253005598696 490.6488253350463Q1428.463172996347 489.21939563041707 1427.9645347272908 488.8537275664421Q1427.4991390095042 488.48805950246714 1427.0005007404475 485.86189795210174L1427.0005007404475 485.86189795210174Q1426.3024071637683 480.60957485137084 1426.900773086636 474.49294541760827Q1427.4991390095042 468.40955853511616 1429.6599048420835 462.1599588962718L1429.6599048420835 462.1599588962718Q1435.6435640707641 443.9762833513364 1454.059937474593 437.75992626376245L1454.059937474593 437.75992626376245Q1456.2207033071718 437.02859013581264 1458.4811967935625 437.39425819978754Q1460.7749328312234 437.75992626376245 1462.902456112532 438.7239602506055Q1465.0632219451113 439.6879942374485 1467.0910175726085 441.1174239420778Q1469.1520557513763 442.54685364670706 1470.8141833148989 443.9762833513364L1470.8141833148989 443.9762833513364L1474.6370767110006 447.10108317075856Q1475.8338085567366 443.01224936449336 1474.5373490571892 438.35829218663054Q1473.2076470063712 433.7043350087677 1470.5814854560058 429.5157735486912Q1467.9553239056404 425.32721208861466 1464.5978262273252 421.96971441029933Q1461.2403285490095 418.612216731984 1458.1155287295874 417.4154848862479L1458.1155287295874 417.4154848862479Q1445.9155124133326 417.4154848862479 1436.2419299936323 423.0334760509537Q1426.5351050226614 428.6514672156595 1417.4266459745581 437.75992626376245L1417.4266459745581 437.75992626376245Q1416.961250256772 438.22532198154875 1416.3628843339038 438.4912623917123Q1415.764518411036 438.7239602506055 1415.2991226932495 438.9566581094986L1415.2991226932495 438.9566581094986Q1414.5677865652997 439.4220538272849 1413.6037525784568 439.1893559683918L1413.6037525784568 439.1893559683918Q1412.9056590017772 438.9566581094986 1413.3710547195637 437.75992626376245L1413.3710547195637 437.75992626376245Q1414.8004844241927 430.11413947155927 1419.1220160893513 423.9975100377967Q1423.4103052032392 417.88088060403413 1429.1612665730268 413.3598936312531Q1434.9122279428143 408.80566410720166 1441.3612828892815 405.6808642877795Q1447.8435803870188 402.58930701962777 1454.059937474593 401.126634763728L1454.059937474593 401.126634763728Q1455.0239714614358 400.6612390459417 1455.855035243197 400.52826884085994Q1456.686099024958 400.4285411870486 1457.8828308706943 400.4285411870486L1457.8828308706943 400.4285411870486Q1459.578200985487 400.4285411870486 1461.0076306901165 401.3925751738916Q1462.437060394746 402.3233666094642 1464.3651283684317 403.52009845520035L1464.3651283684317 403.52009845520035Q1466.758592059904 404.71683030093646 1469.1520557513763 406.2792302106476Q1471.5455194428487 407.8416301203587 1473.4403448652643 410.00239595293783L1473.4403448652643 410.00239595293783Q1475.1357149800574 411.8972213753534 1476.3324468257933 413.8252893490394Q1477.5291786715297 415.75335732272544 1478.459970107102 417.4154848862479ZM1470.3487875971127 460.0324356149631L1470.3487875971127 460.0324356149631Q1468.8861153412126 456.9076357955409 1465.8942857268726 454.28147424517545Q1462.902456112532 451.65531269481 1459.0795627164302 450.3256106439921Q1455.256669320329 448.99590859317414 1450.8354100013594 449.727244721124Q1446.4141506823894 450.4585808490739 1441.8599211583382 454.0487763862823L1441.8599211583382 454.0487763862823Q1440.4304914537088 457.1403336544341 1438.9678191978091 460.8634993967243Q1437.5383894931797 464.55342258774414 1436.8402959165005 468.2765883300344Q1436.1089597885502 471.9997540723246 1436.2419299936323 475.68967726334444Q1436.3416576474438 479.41284300563467 1437.7710873520728 482.5044002737864L1437.7710873520728 482.5044002737864Q1446.879546400176 479.41284300563467 1455.489367179222 475.32400919936947Q1464.0991879582684 471.26841794437473 1470.3487875971127 468.1436181249526L1470.3487875971127 468.1436181249526Q1471.7782173017417 466.7141884203233 1472.0109151606352 465.75015443348025Q1472.2436130195283 464.8193629979077 1471.8779449555532 464.08802686995784Q1471.5455194428487 463.35669074200797 1470.9471535199805 462.4258993064354Q1470.3487875971127 461.4618653195924 1470.3487875971127 460.0324356149631ZM1512.6997979156645 385.569120769158L1512.6997979156645 385.569120769158Q1515.8245977350866 390.8546864211594 1517.121057234634 396.3397073807834Q1518.4507592854516 401.8579708916779 1519.2818230672128 408.57296624830855Q1520.112886848974 415.2547190536687 1521.209891040899 423.5321143200104Q1522.2736526815534 431.77626703508173 1524.8998142319188 442.54685364670706L1524.8998142319188 442.54685364670706Q1527.7919161924478 436.33049655913317 1532.678571229204 427.9533736389801Q1537.5984688172302 419.57625071882705 1543.814825904804 412.6285575033033L1543.814825904804 412.6285575033033Q1545.9755917373836 410.00239595293783 1549.2001192106168 408.30702583814497Q1552.4246466838504 406.6448982746225 1555.3167486443795 405.2154685699932L1555.3167486443795 405.2154685699932Q1556.978876207902 404.2514345831502 1558.30857825872 403.2874005963072Q1559.6050377582674 402.3233666094642 1561.5331057319536 401.8579708916779L1561.5331057319536 401.8579708916779Q1560.3363738862172 404.2514345831502 1559.2393696942927 406.0465323517544Q1558.1756080536384 407.8416301203587 1556.978876207902 409.76969809404466L1556.978876207902 409.76969809404466Q1554.120016798643 413.5925914901463 1550.6295489152462 418.612216731984Q1547.1723235831196 423.6318419738218 1543.947796109886 429.0171352796345Q1540.6900260853818 434.4024285854471 1537.964136881205 439.3223261734735Q1535.205005125758 444.2089812102295 1533.775575421129 447.79917674743797L1533.775575421129 447.79917674743797L1541.188664354439 442.54685364670706Q1545.9755917373836 439.4220538272849 1550.995216979221 439.9206920963416L1550.995216979221 439.9206920963416Q1554.120016798643 440.1533899552348 1557.344544271877 441.71578986494586Q1560.5690717451103 443.27818977465694 1563.4279311543687 445.4057130559657Q1566.3200331148978 447.56647888854485 1568.9461946652632 450.0929127850989Q1571.5723562156286 452.5861041303826 1573.7331220482079 454.74686996296174L1573.7331220482079 454.74686996296174Q1578.5200494311525 457.1403336544341 1583.3069768140972 462.1599588962718Q1588.0939041970419 467.21282668938 1591.9167975931437 471.26841794437473L1591.9167975931437 471.26841794437473Q1593.1135294388796 472.4651497901109 1592.8808315799865 473.42918377695395Q1592.648133721093 474.3932177637969 1593.3462272977727 476.2880431862125L1593.3462272977727 476.2880431862125Q1593.8448655668294 477.4847750319487 1593.6121677079364 479.41284300563467Q1593.3462272977727 481.30766842805025 1592.648133721093 482.77034068395L1592.648133721093 482.77034068395Q1591.6840997342501 484.6651661063656 1591.5511295291685 485.9948681571835Q1591.451401875357 487.29132765673097 1590.9527636063003 487.5572680668946L1590.9527636063003 487.5572680668946Q1585.2350447877834 482.5044002737864 1578.387079226071 476.7866814552692Q1571.5723562156286 471.0357200854816 1564.7576332051867 465.88312463856204Q1557.9429101947449 460.7305291916425 1551.8262807609822 456.6749379366478Q1545.7428938784901 452.5861041303826 1541.188664354439 450.691278707967L1541.188664354439 450.691278707967Q1538.2965623939099 448.99590859317414 1534.240971138915 452.5861041303826Q1530.1853798839202 456.176299667591 1528.9886480381842 462.8912950242217L1528.9886480381842 462.8912950242217Q1528.9886480381842 465.05206085680084 1529.0883756919957 467.8111926122481Q1529.2213458970773 470.53708181642486 1528.024614051341 473.66188163584707L1528.024614051341 473.66188163584707Q1527.5259757822841 474.8586134815832 1527.4262481284732 477.1191069679737Q1527.293277923391 479.41284300563467 1525.3984525009755 480.37687699247766L1525.3984525009755 480.37687699247766L1521.3096186947105 485.39650223431545Q1516.7553891706589 473.1964859180608 1513.5308616974253 460.0324356149631Q1510.3063342241921 446.86838531186544 1507.9128705327198 433.43839459860413Q1505.519406841247 420.04164643661335 1503.7243090726429 406.8775961335156Q1501.9292113040387 393.71354583041796 1500.4997815994097 381.5135295141633L1500.4997815994097 381.5135295141633L1500.001143330353 376.7266021312187Q1500.001143330353 375.06447456769627 1500.1341135354346 374.6988065037213Q1500.2670837405167 374.3331384397464 1502.893245290882 374.1004405808532L1502.893245290882 374.1004405808532Q1503.5913388675613 374.56583629863957 1505.1537387772723 375.6628404905643Q1506.7161386869834 376.7266021312187 1507.4474748149332 377.92333397695484L1507.4474748149332 377.92333397695484Q1508.6442066606692 379.5854615404773 1510.0736363652986 380.78219338621346Q1511.503066069928 381.9789252319496 1512.6997979156645 385.569120769158ZM1623.2645234411766 441.8155175187572L1623.2645234411766 441.8155175187572Q1628.7827869520706 433.7043350087677 1636.4285737442742 428.7844374207413Q1644.107603087748 423.8645398327149 1654.146853571423 424.5958759606648L1654.146853571423 424.5958759606648Q1655.5762832760524 424.8285738195579 1657.2716533908456 425.65963760131916Q1658.933780954368 426.5239439343508 1660.363210658997 427.22203751103024L1660.363210658997 427.22203751103024Q1663.9534061962058 429.1501054847163 1667.078206015628 432.84002867573605Q1670.2030058350501 436.5631944180263 1672.696197180334 441.2171515958891Q1675.2226310768879 445.9043513250224 1676.8847586404104 450.9239765668602Q1678.580128755203 455.9436018086979 1679.2782223318827 460.2651334738562L1679.2782223318827 460.2651334738562Q1679.776860600939 462.8912950242217 1680.0095584598325 466.9468862792164Q1680.2422563187256 471.0357200854816 1680.2422563187256 474.3932177637969L1680.2422563187256 474.3932177637969Q1679.776860600939 474.3932177637969 1679.776860600939 474.6259156226901Q1679.776860600939 474.8586134815832 1679.2782223318827 474.6259156226901L1679.2782223318827 474.6259156226901Q1677.3833969094671 473.66188163584707 1676.1866650637307 471.9997540723246L1676.1866650637307 471.9997540723246Q1675.688026794674 471.50111580326785 1674.723992807831 470.9027498803998Q1673.7932013722584 470.30438395753174 1673.5272609620952 469.3403499706887L1673.5272609620952 469.3403499706887Q1673.0618652443086 466.9468862792164 1672.4634993214408 463.02426522930347Q1671.8651333985727 459.06840162812006 1670.4357036939432 454.5141721040686Q1669.0062739893142 449.9599425800171 1666.845508156735 445.5386832610475Q1664.6847423241556 441.1174239420778 1661.5599425047335 437.75992626376245L1661.5599425047335 437.75992626376245Q1660.363210658997 436.5631944180263 1659.5321468772358 435.96482849515826Q1658.701083095475 435.3664625722902 1657.5043512497386 434.6351264443403L1657.5043512497386 434.6351264443403Q1656.3076194040027 433.7043350087677 1653.9141557125304 433.3386669447928Q1651.520692021058 432.97299888081784 1649.8585644575355 433.43839459860413L1649.8585644575355 433.43839459860413Q1645.76973065127 434.6351264443403 1641.2155011272189 437.9926241226556Q1636.694514154438 441.35012180097095 1633.3370164761227 446.27001938899735Q1629.979518797807 451.1566744257533 1628.550089093178 457.6389719234908Q1627.1206593885486 464.08802686995784 1629.746820938914 471.50111580326785L1629.746820938914 471.50111580326785Q1630.4449145155936 473.66188163584707 1630.7108549257568 474.991583686665Q1630.9435527846504 476.2880431862125 1630.8105825795683 477.4847750319487Q1630.7108549257568 478.6815068776848 1629.979518797807 480.1109365823141Q1629.2481826698572 481.57360883821383 1628.0514508241213 483.96707252968616L1628.0514508241213 483.96707252968616Q1626.1566254017057 486.82593193894473 1623.6301915051517 488.0226637846809Q1621.137000159868 489.21939563041707 1619.2089321861818 490.6488253350463L1619.2089321861818 490.6488253350463Q1612.2612389706578 470.80302222658844 1608.571315779638 450.9239765668602Q1604.8481500373478 431.04493090713186 1604.017086255587 413.3598936312531Q1603.1860224738257 395.641613804104 1605.0808478962413 380.9151635912952Q1607.0089158699275 366.18871337848645 1611.0645071249219 356.3821607537041L1611.0645071249219 356.3821607537041Q1611.7958432528717 353.5233013444455 1614.189306944344 353.9886970622318L1614.189306944344 353.9886970622318Q1615.3860387900804 354.22139492112495 1616.0841323667596 354.95273104907477Q1616.8154684947094 355.6508246257542 1618.0122003404458 356.84755647149035L1618.0122003404458 356.84755647149035Q1618.9762343272887 358.0442883172265 1619.6743279039683 358.9085946502582Q1620.4056640319177 359.73965843201944 1620.6383618908112 361.1690881366487L1620.6383618908112 361.1690881366487Q1620.8710597497043 362.36581998238483 1621.8350937365472 362.36581998238483Q1622.7991277233905 362.36581998238483 1622.566429864497 363.562551828121L1622.566429864497 363.562551828121Q1620.4056640319177 376.7266021312187 1619.6743279039683 387.96258446063035Q1618.9762343272887 399.23180934131244 1619.3419023912638 408.80566410720166Q1619.6743279039683 418.3795188730909 1620.8710597497043 426.5239439343508Q1622.0677915954402 434.6351264443403 1623.2645234411766 441.8155175187572Z " fill="#8a9ac4" transform="matrix(0.5207582864475707,0,0,0.5207582864475707,0,76.63454181166122)"/></g></svg>